<?xml version="1.0" encoding="iso-8859-1"?>
<!-- Generator: Adobe Illustrator 24.0.0, SVG Export Plug-In . SVG Version: 6.00 Build 0)  -->
<svg version="1.1" xmlns="http://www.w3.org/2000/svg" xmlns:xlink="http://www.w3.org/1999/xlink" x="0px" y="0px"
	 viewBox="0 0 48 48" style="enable-background:new 0 0 48 48;" xml:space="preserve">
<g id="Layer_107">
	<path style="fill:#508FCC;" d="M28,16l16,15v-3c0-1.104,0.895-2,2-2s2,0.896,2,2v14c0,1.104-0.895,2-2,2s-2-0.896-2-2v-2l-16-4v5
		l4.449,3.811C33.626,45.988,32.792,48,31.128,48l-7.14-1l-7.117,1c-1.664,0-2.498-2.012-1.321-3.189L20,41v-5L4,40v2
		c0,1.104-0.895,2-2,2s-2-0.896-2-2V28c0-1.104,0.895-2,2-2s2,0.896,2,2v3l16-15v-5.37c0-0.38,0.072-0.756,0.212-1.109l2.692-8.777
		c0.394-0.992,1.798-0.992,2.192,0l2.692,8.777C27.928,9.874,28,10.25,28,10.63V16z"/>
</g>
<g id="Layer_1">
</g>
</svg>
