<?xml version="1.0" encoding="iso-8859-1"?>
<!-- Generator: Adobe Illustrator 24.0.0, SVG Export Plug-In . SVG Version: 6.00 Build 0)  -->
<svg version="1.1" xmlns="http://www.w3.org/2000/svg" xmlns:xlink="http://www.w3.org/1999/xlink" x="0px" y="0px"
	 viewBox="0 0 48 48" style="enable-background:new 0 0 48 48;" xml:space="preserve">
<g id="Layer_109">
	<path style="fill:#508FCC;" d="M11.2,24h-8C1.432,24,0,22.434,0,20.5S1.432,17,3.2,17l8.8-2l8-2V4c0-2.21,1.79-4,4-4s4,1.79,4,4v9
		l8,2l8.8,2c1.768,0,3.2,1.566,3.2,3.5S46.568,24,44.8,24h-8L28,24v16l6.06,4.31c0.21,0.13,0.39,0.29,0.53,0.49
		C34.85,45.14,35,45.55,35,46c0,1.1-0.9,2-2,2c-0.25,0-0.5-0.05-0.72-0.14L24,45.11l-8.7,2.86C15.2,47.99,15.1,48,15,48
		c-1.1,0-2-0.9-2-2c0-0.5,0.18-0.95,0.49-1.3c0.13-0.15,0.28-0.29,0.45-0.39L20,40V24L11.2,24z"/>
</g>
<g id="Layer_1">
</g>
</svg>
