<?xml version="1.0" encoding="iso-8859-1"?>
<!-- Generator: Adobe Illustrator 24.0.0, SVG Export Plug-In . SVG Version: 6.00 Build 0)  -->
<svg version="1.1" xmlns="http://www.w3.org/2000/svg" xmlns:xlink="http://www.w3.org/1999/xlink" x="0px" y="0px"
	 viewBox="0 0 48 47.999" style="enable-background:new 0 0 48 47.999;" xml:space="preserve">
<g id="Layer_93">
	<g>
		<path style="fill:#508FCC;" d="M38,43.999h-4.451l-7.183-26.805C27.353,16.466,28,15.305,28,13.985c0-2.209-1.791-4-4-4
			s-4,1.791-4,4c0,1.32,0.647,2.481,1.634,3.209l-7.183,26.805H10c-1.104,0-2,0.896-2,2s0.896,2,2,2h28c1.104,0,2-0.896,2-2
			S39.104,43.999,38,43.999z M21.309,29.999h5.381l1.608,6h-8.597L21.309,29.999z M22.113,26.999L24,19.958l1.887,7.041H22.113z
			 M18.898,38.999h10.205l1.34,5H17.558L18.898,38.999z"/>
		<path style="fill:#508FCC;" d="M3,13.553C3,9.449,4.668,5.559,7.564,2.597c0.592-0.605,0.579-1.573-0.028-2.163
			c-0.607-0.59-1.579-0.576-2.172,0.028C1.905,3.998,0,8.647,0,13.553c0,4.848,1.974,9.455,5.354,12.974
			c0.302,0.314,0.706,0.473,1.11,0.473c0.382,0,0.765-0.142,1.062-0.425c0.613-0.585,0.634-1.553,0.048-2.163
			C4.742,21.465,3,17.609,3,13.553z"/>
		<path style="fill:#508FCC;" d="M12.217,19.476c0.304,0.346,0.722,0.523,1.144,0.523c0.365,0,0.731-0.134,1.025-0.403
			c0.63-0.583,0.683-1.578,0.116-2.226C13.579,16.316,13,14.961,13,13.557c0-1.45,0.608-2.836,1.584-3.903
			c0.58-0.634,0.55-1.631-0.069-2.227c-0.616-0.596-1.589-0.566-2.17,0.071C10.834,9.15,10,11.303,10,13.557
			C10,15.741,10.788,17.842,12.217,19.476z"/>
		<path style="fill:#508FCC;" d="M8.449,22.536c0.28,0.308,0.656,0.463,1.033,0.463c0.348,0,0.697-0.132,0.971-0.398
			c0.57-0.556,0.598-1.484,0.062-2.075C8.787,18.623,8,16.146,8,13.551c0-2.64,0.819-5.15,2.603-7.066
			c0.543-0.583,0.527-1.512-0.037-2.075s-1.46-0.546-2.004,0.039C6.265,6.914,5,10.147,5,13.551C5,16.895,6.225,20.086,8.449,22.536
			z"/>
		<path style="fill:#508FCC;" d="M42.657,0.462c-0.59-0.604-1.559-0.618-2.163-0.028c-0.605,0.59-0.618,1.558-0.028,2.163
			C43.351,5.559,45,9.449,45,13.553c0,4.056-1.755,7.912-4.576,10.858c-0.584,0.61-0.563,1.578,0.048,2.163
			c0.296,0.283,0.677,0.425,1.058,0.425c0.402,0,0.805-0.158,1.105-0.473C46.002,23.008,48,18.401,48,13.553
			C48,8.647,46.103,3.998,42.657,0.462z"/>
		<path style="fill:#508FCC;" d="M35,13.557c0,1.404-0.65,2.759-1.597,3.813c-0.581,0.647-0.527,1.643,0.12,2.226
			c0.302,0.27,0.678,0.403,1.052,0.403c0.432,0,0.862-0.177,1.174-0.523C37.215,17.842,38,15.741,38,13.557
			c0-2.255-0.724-4.407-2.276-6.06c-0.595-0.637-1.594-0.667-2.227-0.071c-0.635,0.596-0.666,1.593-0.07,2.227
			C34.429,10.721,35,12.107,35,13.557z"/>
		<path style="fill:#508FCC;" d="M40,13.551c0,2.596-0.813,5.073-2.602,6.976c-0.554,0.591-0.525,1.519,0.065,2.075
			c0.284,0.266,0.645,0.398,1.005,0.398c0.391,0,0.78-0.155,1.07-0.463C41.838,20.086,43,16.895,43,13.551
			c0-3.403-1.099-6.637-3.476-9.103c-0.563-0.584-1.491-0.602-2.075-0.039s-0.6,1.491-0.038,2.075C39.258,8.4,40,10.91,40,13.551z"
			/>
	</g>
</g>
<g id="Layer_1">
</g>
</svg>
