<?xml version="1.0" encoding="iso-8859-1"?>
<!-- Generator: Adobe Illustrator 24.0.0, SVG Export Plug-In . SVG Version: 6.00 Build 0)  -->
<svg version="1.1" xmlns="http://www.w3.org/2000/svg" xmlns:xlink="http://www.w3.org/1999/xlink" x="0px" y="0px"
	 viewBox="0 0 48 48" style="enable-background:new 0 0 48 48;" xml:space="preserve">
<g id="Layer_78">
	<g>
		<circle style="fill:#508FCC;" cx="21.5" cy="8.5" r="6.5"/>
		<path style="fill:#508FCC;" d="M0,38.95c0,1.722,1.429,3.118,3.166,3.047C4.784,41.932,5.991,40.471,6,38.853
			c0.03-4.958,2.354-9.2,6-11.853v17.03c0,2.193,1.777,3.97,3.97,3.97h11.06c1.105,0,2.104-0.456,2.826-1.179
			C29.951,46.727,30,46.595,30,46.461V19.58C27.4,18.53,24.52,18,21.5,18C9.22,18,0,26.95,0,38.95z"/>
		<path style="fill:#508FCC;" d="M48,23v-2.893c0-0.996-0.681-1.92-1.664-2.08C45.083,17.823,44,18.785,44,20v3c0,1.103-0.897,2-2,2
			V11c0-1.1-0.9-2-2-2V2V0.5C40,0.224,39.776,0,39.5,0H37c-0.552,0-1,0.448-1,1c0,0.552,0.448,1,1,1v7.279
			c-0.594,0.348-1,0.986-1,1.721v4.57V17h-1c-1.1,0-2,0.9-2,2v2.05v7.73V34c0,1.1,0.9,2,2,2h1v10c0,1.1,0.9,2,2,2h5
			c1.3,0,2.25-1.22,1.94-2.49c0,0-2.94-9.43-2.94-9.51h3.893c0.996,0,1.92-0.681,2.08-1.664C48.176,33.083,47.215,32,46,32h-4v-3
			C45.309,29,48,26.309,48,23z"/>
	</g>
</g>
<g id="Layer_1">
</g>
</svg>
