<?xml version="1.0" encoding="iso-8859-1"?>
<!-- Generator: Adobe Illustrator 24.0.0, SVG Export Plug-In . SVG Version: 6.00 Build 0)  -->
<svg version="1.1" xmlns="http://www.w3.org/2000/svg" xmlns:xlink="http://www.w3.org/1999/xlink" x="0px" y="0px"
	 viewBox="0 0 44 44" style="enable-background:new 0 0 44 44;" xml:space="preserve">
<g id="Layer_98">
	<path style="fill:#508FCC;" d="M22,0C9.85,0,0,9.85,0,22s9.85,22,22,22s22-9.85,22-22S34.15,0,22,0z M32.12,27.88
		c1.17,1.17,1.17,3.07,0,4.24C31.54,32.71,30.77,33,30,33s-1.54-0.29-2.12-0.88L22,26l-5.88,6.12C15.54,32.71,14.77,33,14,33
		s-1.54-0.29-2.12-0.88c-1.17-1.17-1.17-3.07,0-4.24L18,22l-6.12-5.88c-1.17-1.17-1.17-3.07,0-4.24c1.17-1.17,3.07-1.17,4.24,0
		L22,18l5.88-6.12c1.17-1.17,3.07-1.17,4.24,0c1.17,1.17,1.17,3.07,0,4.24L26,22L32.12,27.88z"/>
</g>
<g id="Layer_1">
</g>
</svg>
