<?xml version="1.0" encoding="iso-8859-1"?>
<!-- Generator: Adobe Illustrator 24.0.0, SVG Export Plug-In . SVG Version: 6.00 Build 0)  -->
<svg version="1.1" xmlns="http://www.w3.org/2000/svg" xmlns:xlink="http://www.w3.org/1999/xlink" x="0px" y="0px"
	 viewBox="0 0 44 44" style="enable-background:new 0 0 44 44;" xml:space="preserve">
<g id="Layer_95">
	<path style="fill:#508FCC;" d="M22,44c12.15,0,22-9.85,22-22S34.15,0,22,0S0,9.85,0,22S9.85,44,22,44z M22,5c1.66,0,3,1.34,3,3
		c0,1.66-1.34,3-3,3s-3-1.34-3-3C19,6.34,20.34,5,22,5z M19,18c0-1.66,1.34-3,3-3s3,1.34,3,3v18c0,1.66-1.34,3-3,3
		c-0.83,0-1.58-0.34-2.12-0.88C19.34,37.58,19,36.83,19,36V18z"/>
</g>
<g id="Layer_1">
</g>
</svg>
