<?xml version="1.0" encoding="iso-8859-1"?>
<!-- Generator: Adobe Illustrator 24.0.0, SVG Export Plug-In . SVG Version: 6.00 Build 0)  -->
<svg version="1.1" xmlns="http://www.w3.org/2000/svg" xmlns:xlink="http://www.w3.org/1999/xlink" x="0px" y="0px"
	 viewBox="0 0 44 44" style="enable-background:new 0 0 44 44;" xml:space="preserve">
<g id="Layer_96">
	<path style="fill:#508FCC;" d="M22,0C9.85,0,0,9.85,0,22s9.85,22,22,22s22-9.85,22-22S34.15,0,22,0z M36.15,16.09l-15.5,16
		C20.09,32.67,19.31,33,18.5,33c-0.01,0-0.01,0-0.02,0c-0.82,0-1.6-0.34-2.16-0.94l-8.5-9c-1.14-1.2-1.08-3.1,0.12-4.24
		c1.2-1.14,3.1-1.08,4.24,0.12l6.35,6.72l13.32-13.75c1.15-1.19,3.05-1.22,4.24-0.06C37.28,13,37.31,14.9,36.15,16.09z"/>
</g>
<g id="Layer_1">
</g>
</svg>
