<?xml version="1.0" encoding="iso-8859-1"?>
<!-- Generator: Adobe Illustrator 24.0.0, SVG Export Plug-In . SVG Version: 6.00 Build 0)  -->
<svg version="1.1" xmlns="http://www.w3.org/2000/svg" xmlns:xlink="http://www.w3.org/1999/xlink" x="0px" y="0px"
	 viewBox="0 0 44 44" style="enable-background:new 0 0 44 44;" xml:space="preserve">
<g id="Layer_99">
	<path style="fill:#508FCC;" d="M22,0C9.85,0,0,9.85,0,22s9.85,22,22,22s22-9.85,22-22S34.15,0,22,0z M22,39c-1.66,0-3-1.34-3-3
		c0-1.66,1.34-3,3-3s3,1.34,3,3C25,37.66,23.66,39,22,39z M25,26c0,1.66-1.34,3-3,3s-3-1.34-3-3V8c0-1.66,1.34-3,3-3
		c0.83,0,1.58,0.34,2.12,0.88C24.66,6.42,25,7.17,25,8V26z"/>
</g>
<g id="Layer_1">
</g>
</svg>
