<svg xmlns="http://www.w3.org/2000/svg" viewBox="0 0 36 44"><defs><style>.cls-1{fill:#508fcc;}</style></defs><title>Asset 2</title><g id="Layer_2" data-name="Layer 2"><g id="Layer_45" data-name="Layer 45"><path class="cls-1" d="M35.67,15.7,18.66.25a1,1,0,0,0-1.32,0L.33,15.7a1,1,0,0,0-.33.74V44H36V16.44A1,1,0,0,0,35.67,15.7ZM19.19,37.43v1.78a1.79,1.79,0,1,1-3.57,0V37.43H15a1.79,1.79,0,0,1,0-3.57h3.52a1.79,1.79,0,1,0,0-3.57H17.48a5.35,5.35,0,0,1-1.86-10.4v-2.1a1.79,1.79,0,1,1,3.57,0v1.78H21a1.79,1.79,0,0,1,0,3.57h-3.5a1.83,1.83,0,0,0-1.86,1.8,1.81,1.81,0,0,0,1.86,1.77h1.06a5.38,5.38,0,0,1,.65,10.72Z"/></g></g></svg>