<?xml version="1.0" encoding="iso-8859-1"?>
<!-- Generator: Adobe Illustrator 24.0.0, SVG Export Plug-In . SVG Version: 6.00 Build 0)  -->
<svg version="1.1" xmlns="http://www.w3.org/2000/svg" xmlns:xlink="http://www.w3.org/1999/xlink" x="0px" y="0px"
	 viewBox="0 0 36 44" style="enable-background:new 0 0 36 44;" xml:space="preserve">
<g id="Layer_48">
	<g>
		<path style="fill:#508FCC;" d="M17.737,20.682c-2.476-1.048-2.198,0.106-4.705,0l4.994,4.726l4.938-4.726
			C21.073,21.13,19.674,21.502,17.737,20.682z"/>
		<path style="fill:#508FCC;" d="M35.672,15.702L18.664,0.253c-0.379-0.337-0.95-0.337-1.329,0L0.328,15.702
			C0.119,15.892,0,16.161,0,16.443V44h14h8h14V16.443C36,16.161,35.881,15.892,35.672,15.702z M29.549,17.473L19.127,27.34v9.688
			l4.054,0.791c0.265,0.052,0.456,0.284,0.456,0.553v0.564c0,0.311-0.252,0.564-0.564,0.564H12.926
			c-0.311,0-0.564-0.252-0.564-0.564v-0.564c0-0.27,0.191-0.502,0.456-0.553l4.054-0.791V27.34L6.451,17.473
			c-0.168-0.159-0.222-0.404-0.136-0.618C6.4,16.641,6.607,16.5,6.838,16.5h22.323c0.231,0,0.438,0.141,0.524,0.355
			C29.771,17.07,29.717,17.314,29.549,17.473z"/>
	</g>
</g>
<g id="Layer_1">
</g>
</svg>
