<svg xmlns="http://www.w3.org/2000/svg" viewBox="0 0 48 48"><defs><style>.cls-1{fill:#508fcc;}</style></defs><title>Asset 7</title><g id="Layer_2" data-name="Layer 2"><g id="Layer_41" data-name="Layer 41"><rect class="cls-1" x="40" y="19" width="8" height="9"/><rect class="cls-1" x="20" y="19" width="8" height="9"/><rect class="cls-1" y="19" width="8" height="9"/><path class="cls-1" d="M40.88,14.12a3,3,0,0,0,4.24,0,3,3,0,0,0,0-4.24l-9-9A3.44,3.44,0,0,0,35.66.5L35.45.39a2.19,2.19,0,0,0-.3-.16l-.3-.09L34.59.06a2.93,2.93,0,0,0-1.18,0l-.26.08-.3.09a3.07,3.07,0,0,0-.31.16l-.2.11a2.82,2.82,0,0,0-.46.38l-9,9a3,3,0,0,0,0,4.24,3,3,0,0,0,4.24,0L31,10.24V45a3,3,0,0,0,6,0V10.24Z"/><path class="cls-1" d="M20.88,33.88,17,37.76V3a3,3,0,0,0-6,0V37.76L7.12,33.88a3,3,0,0,0-4.24,4.24l9,9a2.82,2.82,0,0,0,.46.38l.2.11a3.07,3.07,0,0,0,.31.16l.3.09.26.08a2.93,2.93,0,0,0,1.18,0l.26-.08.3-.09a2.19,2.19,0,0,0,.3-.16l.21-.11a3.44,3.44,0,0,0,.46-.38l9-9a3,3,0,0,0-4.24-4.24Z"/></g></g></svg>