<svg xmlns="http://www.w3.org/2000/svg" viewBox="0 0 48 48"><defs><style>.cls-1{fill:#508fcc;}</style></defs><title>Asset 8</title><g id="Layer_2" data-name="Layer 2"><g id="Layer_37" data-name="Layer 37"><rect class="cls-1" x="31" y="19" width="17" height="9"/><rect class="cls-1" y="19" width="19" height="9"/><path class="cls-1" d="M31.88,33.88,28,37.76V3a3,3,0,0,0-6,0V37.76l-3.88-3.88a3,3,0,1,0-4.24,4.24l9,9a2.82,2.82,0,0,0,.46.38l.2.11a3.07,3.07,0,0,0,.31.16l.3.09.26.08a2.93,2.93,0,0,0,1.18,0l.26-.08.3-.09a2.19,2.19,0,0,0,.3-.16l.21-.11a3.44,3.44,0,0,0,.46-.38l9-9a3,3,0,1,0-4.24-4.24Z"/></g></g></svg>