<svg xmlns="http://www.w3.org/2000/svg" viewBox="0 0 48 48"><defs><style>.cls-1{fill:#508fcc;}</style></defs><title>Asset 9</title><g id="Layer_2" data-name="Layer 2"><g id="Layer_36" data-name="Layer 36"><rect class="cls-1" x="31" y="19" width="17" height="9"/><rect class="cls-1" y="19" width="19" height="9"/><path class="cls-1" d="M31.88,33.88,28,37.76V10.24l3.88,3.88a3,3,0,1,0,4.24-4.24l-9-9a3,3,0,0,0-1-.65h0A1.27,1.27,0,0,0,26,.17L25.59.06h0a2.93,2.93,0,0,0-1.18,0h0l-.26.08h0c-.1,0-.2,0-.3.09h0a2.19,2.19,0,0,0-.3.16h0L23.34.5h0a4.33,4.33,0,0,0-.47.38l-9,9a3,3,0,1,0,4.24,4.24L22,10.24V37.76l-3.88-3.88a3,3,0,1,0-4.24,4.24l9,9a3,3,0,0,0,1,.65h0a3.68,3.68,0,0,0,.54.16h0a2.93,2.93,0,0,0,1.18,0h0a3.13,3.13,0,0,0,.52-.16h0a2.19,2.19,0,0,0,.3-.16h0l.21-.11h0a4.33,4.33,0,0,0,.47-.38l9-9a3,3,0,1,0-4.24-4.24Z"/></g></g></svg>