<svg xmlns="http://www.w3.org/2000/svg" viewBox="0 0 48 48"><defs><style>.cls-1{fill:#508fcc;}</style></defs><title>Asset 20</title><g id="Layer_2" data-name="Layer 2"><g id="Layer_27" data-name="Layer 27"><path class="cls-1" d="M46.5,12H35a1,1,0,0,0-1,1V45H14V13a1,1,0,0,0-1-1H1.5a1.5,1.5,0,0,0,0,3H11V46.23A1.72,1.72,0,0,0,12.67,48H35.33A1.72,1.72,0,0,0,37,46.23V15h9.5a1.5,1.5,0,0,0,0-3Z"/><path class="cls-1" d="M24.73,42A6,6,0,0,0,27,30.81V3.17A3.13,3.13,0,0,0,24.16,0,3,3,0,0,0,21,3V30.81A6,6,0,0,0,24.73,42Z"/></g></g></svg>