<?xml version="1.0" encoding="iso-8859-1"?>
<!-- Generator: Adobe Illustrator 24.0.0, SVG Export Plug-In . SVG Version: 6.00 Build 0)  -->
<svg version="1.1" xmlns="http://www.w3.org/2000/svg" xmlns:xlink="http://www.w3.org/1999/xlink" x="0px" y="0px"
	 viewBox="0 0 44 44" style="enable-background:new 0 0 44 44;" xml:space="preserve">
<g id="Layer_92">
	<path style="fill:#508FCC;" d="M43,7h-1V3.1C42,1.4,40.6,0,38.9,0H5.1C3.4,0,2,1.4,2,3.1V7H1C0.45,7,0,7.45,0,8v12
		c0,0.55,0.45,1,1,1h1v15.9c0,1.67,1.34,3.04,3,3.09v1.51C5,42.88,6.12,44,7.5,44s2.5-1.12,2.5-2.5V40h25v1.5
		c0,1.38,1.12,2.5,2.5,2.5s2.5-1.12,2.5-2.5v-1.7c1.16-0.45,2-1.59,2-2.9V21h1c0.55,0,1-0.45,1-1V8C44,7.45,43.55,7,43,7z M5,4
		c0-0.55,0.45-1,1-1h32c0.55,0,1,0.45,1,1v3c0,0.55-0.45,1-1,1H6C5.45,8,5,7.55,5,7V4z M9,35.5C8.59,35.81,8.06,36,7.5,36
		s-1.08-0.18-1.49-0.5C5.4,35.05,5,34.32,5,33.5C5,32.12,6.12,31,7.5,31s2.5,1.12,2.5,2.5C10,34.32,9.61,35.04,9,35.5z M20,23
		c0,0.55-0.45,1-1,1H6c-0.55,0-1-0.45-1-1V13c0-0.55,0.45-1,1-1h13c0.55,0,1,0.45,1,1V23z M24,23V13c0-0.55,0.45-1,1-1h13
		c0.55,0,1,0.45,1,1v10c0,0.55-0.45,1-1,1H25C24.45,24,24,23.55,24,23z M39,35.5c-0.41,0.31-0.94,0.5-1.5,0.5s-1.08-0.18-1.49-0.5
		c-0.61-0.45-1.01-1.18-1.01-2c0-1.38,1.12-2.5,2.5-2.5s2.5,1.12,2.5,2.5C40,34.32,39.61,35.04,39,35.5z"/>
</g>
<g id="Layer_1">
</g>
</svg>
