<?xml version="1.0" encoding="iso-8859-1"?>
<!-- Generator: Adobe Illustrator 24.0.0, SVG Export Plug-In . SVG Version: 6.00 Build 0)  -->
<svg version="1.1" xmlns="http://www.w3.org/2000/svg" xmlns:xlink="http://www.w3.org/1999/xlink" x="0px" y="0px"
	 viewBox="0 0 48 48" style="enable-background:new 0 0 48 48;" xml:space="preserve">
<g id="Layer_82">
	<g>
		<path style="fill:#508FCC;" d="M39.39,17.61l-0.73,0.73l-3.93,3.93L22,35h17V24.57c1.84,1.74,3,4.2,3,6.93V42c0,1.66,1.34,3,3,3
			s3-1.34,3-3V31.5C48,25.42,44.49,20.15,39.39,17.61z"/>
		<path style="fill:#508FCC;" d="M21,30.34L29.34,22l0.03-0.03l2.6-2.6l0,0l3.14-3.14C34.26,16.08,33.39,16,32.5,16H29h-1.5H3
			c-1.66,0-3,1.34-3,3c0,1.66,1.34,3,3,3h18V30.34z"/>
		<rect x="21" y="39" style="fill:#508FCC;" width="18" height="9"/>
		<path style="fill:#508FCC;" d="M29.5,13.98c3.59,0,6.5-2.91,6.5-6.5c0-0.51-0.06-1.01-0.17-1.48H23.16
			c-0.11,0.47-0.17,0.97-0.17,1.48C22.99,11.07,25.9,13.98,29.5,13.98z"/>
		<path style="fill:#508FCC;" d="M24.444,4h10.111C35.353,4,36,3.379,36,2.613V1.388c0-0.827-0.748-1.47-1.604-1.379L24.285,1.088
			C23.553,1.166,23,1.76,23,2.467v0.146C23,3.379,23.647,4,24.444,4z"/>
	</g>
</g>
<g id="Layer_1">
</g>
</svg>
