<?xml version="1.0" encoding="iso-8859-1"?>
<!-- Generator: Adobe Illustrator 24.0.0, SVG Export Plug-In . SVG Version: 6.00 Build 0)  -->
<svg version="1.1" xmlns="http://www.w3.org/2000/svg" xmlns:xlink="http://www.w3.org/1999/xlink" x="0px" y="0px"
	 viewBox="0 0 44 44" style="enable-background:new 0 0 44 44;" xml:space="preserve">
<g id="Layer_86">
	<g>
		<polygon style="fill:#508FCC;" points="18.213,35 25.859,35 25.859,15.348 34.397,15.348 34.397,8.275 25.859,8.275 25.859,0 
			18.213,0 18.213,8.275 9.603,8.275 9.603,15.348 18.213,15.348 		"/>
		<path style="fill:#508FCC;" d="M42.625,41.25H1.375C0.616,41.25,0,41.866,0,42.625S0.616,44,1.375,44h41.25
			C43.384,44,44,43.384,44,42.625S43.384,41.25,42.625,41.25z"/>
		<path style="fill:#508FCC;" d="M5.042,39.417h33.917c0.759,0,1.375-0.616,1.375-1.375s-0.616-1.375-1.375-1.375H5.042
			c-0.759,0-1.375,0.616-1.375,1.375S4.282,39.417,5.042,39.417z"/>
	</g>
</g>
<g id="Layer_1">
</g>
</svg>
