<?xml version="1.0" encoding="iso-8859-1"?>
<!-- Generator: Adobe Illustrator 24.0.0, SVG Export Plug-In . SVG Version: 6.00 Build 0)  -->
<svg version="1.1" xmlns="http://www.w3.org/2000/svg" xmlns:xlink="http://www.w3.org/1999/xlink" x="0px" y="0px"
	 viewBox="0 0 48 48" style="enable-background:new 0 0 48 48;" xml:space="preserve">
<g id="Layer_68">
	<g>
		<path style="fill:#508FCC;" d="M18.879,8.989c2.338-0.406,3.922-2.731,3.539-5.195c-0.377-2.468-2.593-4.139-4.931-3.733
			c-2.344,0.403-3.927,2.731-3.544,5.199C14.326,7.725,16.535,9.392,18.879,8.989z"/>
		<path style="fill:#508FCC;" d="M20.492,29.207c-0.261-0.599-0.406-1.821-0.296-2.471l0.882-5.012l3.8,6.396
			c0.539,0.898,1.659,1.188,2.529,0.651c0.87-0.541,1.172-1.711,0.685-2.643l-0.963-1.839c-0.835-1.57-1.653-3.146-2.483-4.722
			l-1.7-3.241c-0.191-0.369-0.383-0.791-0.586-1.237c-1.044-2.306-2.674-5.867-6.242-5.54c-3.051,0.278-6.149,1.805-9.2,4.536
			c-3.62,3.003-6.143,7.358-6.248,7.544c-0.116,0.199-0.226,0.388-0.319,0.571c-0.006,0.009-0.012,0.015-0.017,0.021v0.003
			c-0.336,0.672-0.505,1.286-0.081,2.064c0.331,0.617,0.951,0.999,1.624,0.999c0.812,0,1.23-0.403,1.63-1.021
			c0.006-0.003,0.006-0.009,0.012-0.015c0.11-0.174,0.22-0.367,0.342-0.565c0.023-0.039,2.14-3.616,5.418-6.56
			c1.009-0.834,1.972-1.408,2.877-1.726l-0.731,9.31c-0.07,0.922-0.348,2.511-0.586,3.4l-1.642,6.066
			c-0.215,0.767-0.835,2.037-1.317,2.661L3.443,42.63C2.88,43.366,2.242,44.2,2.77,45.355c0.308,0.681,0.963,1.115,1.682,1.115
			c0.859,0,1.322-0.522,1.909-1.185l4.496-5.107c0.801-0.91,1.845-2.496,2.361-3.613l2.233-4.78L23.7,46.385
			C24.106,47.105,24.617,48,25.736,48c0.638,0,1.23-0.345,1.572-0.907c0.586-0.959,0.197-1.844-0.145-2.626L20.492,29.207z"/>
		<path style="fill:#508FCC;" d="M47.549,33.911l-7.19-7.19c-0.601-0.602-1.577-0.602-2.179,0c-0.602,0.602-0.602,1.577,0,2.179
			l4.56,4.56H29.511c-0.851,0-1.541,0.69-1.541,1.541c0,0.851,0.69,1.541,1.541,1.541H42.74l-4.56,4.56
			c-0.301,0.301-0.451,0.695-0.451,1.089c0,0.394,0.15,0.788,0.451,1.089c0.601,0.602,1.577,0.602,2.179,0l7.19-7.19
			C48.15,35.488,48.15,34.513,47.549,33.911z"/>
	</g>
</g>
<g id="Layer_1">
</g>
</svg>
