<svg xmlns="http://www.w3.org/2000/svg" viewBox="0 0 32.01 44"><defs><style>.cls-1{fill:#508fcc;}</style></defs><title>Asset 23</title><g id="Layer_2" data-name="Layer 2"><g id="Layer_26" data-name="Layer 26"><path class="cls-1" d="M16,17a4,4,0,0,0,4-4c0-1.9-3-5.76-3.79-6.89a.25.25,0,0,0-.42,0C15,7.24,12,11.1,12,13A4,4,0,0,0,16,17Z"/><path class="cls-1" d="M31,0H1A1,1,0,0,0,0,1L3.7,41.48a2.93,2.93,0,0,0,3,2.52H25.29a2.93,2.93,0,0,0,3-2.52L32,1A1,1,0,0,0,31,0ZM26.22,20.24a13.15,13.15,0,0,0-2.6-.24,11.47,11.47,0,0,0-5.31,1.17,7.65,7.65,0,0,1-3.69.83,7.64,7.64,0,0,1-3.68-.83A11.43,11.43,0,0,0,5.76,20L4.3,4H27.7Z"/></g></g></svg>