<svg xmlns="http://www.w3.org/2000/svg" viewBox="0 0 48 25.97"><defs><style>.cls-1{fill:#508fcc;}</style></defs><title>Asset 40</title><g id="Layer_2" data-name="Layer 2"><g id="Layer_5" data-name="Layer 5"><path class="cls-1" d="M30.63,20.64a1.72,1.72,0,0,1,1.72-1.72h0a1.72,1.72,0,0,1,1.72,1.72h0A1.89,1.89,0,0,0,36,22.53h0a1.9,1.9,0,0,0,1.9-1.89h0a1.91,1.91,0,0,0-1.9-1.9h0a7.57,7.57,0,0,1-7.37-5.84H11.16A11.19,11.19,0,0,1,0,1.72H0A1.72,1.72,0,0,1,1.72,0h0A1.72,1.72,0,0,1,3.44,1.72h0a7.75,7.75,0,0,0,7.74,7.74H28.59A7.57,7.57,0,0,1,36,3.61h0a7.57,7.57,0,0,1,7.37,5.85h.72a4,4,0,0,1,4,3.95h0a4,4,0,0,1-4,3.95h0a4,4,0,0,1-4-3.94h0V12.9H32.21A4.16,4.16,0,0,0,36,15.31h0a5.34,5.34,0,0,1,5.34,5.33h0A5.34,5.34,0,0,1,36,26h0a5.33,5.33,0,0,1-5.33-5.33Zm12.9-7.23a.53.53,0,0,0,.52.52h0a.52.52,0,0,0,.51-.52h0a.52.52,0,0,0-.43-.51h-.6v.51ZM39.72,9.47A4.13,4.13,0,0,0,36,7.05h0a4.12,4.12,0,0,0-3.75,2.42h7.51Z"/></g></g></svg>