<svg xmlns="http://www.w3.org/2000/svg" viewBox="0 0 46.1 44"><defs><style>.cls-1{fill:#508fcc;}</style></defs><title>Asset 3</title><g id="Layer_2" data-name="Layer 2"><g id="Layer_44" data-name="Layer 44"><path class="cls-1" d="M45.4,20.33,35.08,10.12a2.39,2.39,0,0,0-3.36,0,2.34,2.34,0,0,0,0,3.33L38,19.64H7.62a2.36,2.36,0,1,0,0,4.72H38l-6.25,6.19a2.34,2.34,0,0,0,0,3.33,2.39,2.39,0,0,0,3.36,0L45.4,23.67A2.35,2.35,0,0,0,45.4,20.33Z"/><rect class="cls-1" width="46.1" height="6.29" rx="3"/><rect class="cls-1" y="37.71" width="46.1" height="6.29" rx="3"/></g></g></svg>