<svg xmlns="http://www.w3.org/2000/svg" viewBox="0 0 48 41.71"><defs><style>.cls-1{fill:#508fcc;}</style></defs><title>Asset 41</title><g id="Layer_2" data-name="Layer 2"><g id="Layer_4" data-name="Layer 4"><path class="cls-1" d="M35.59,15.74A13,13,0,0,0,33.27.59a2,2,0,0,0-2.83,2.82,9,9,0,0,1,1.94,9.73,12,12,0,0,0-16.71-.05,8.83,8.83,0,0,1,1.86-9.65A2,2,0,1,0,14.76.56a12.91,12.91,0,0,0-2.28,15.18A13,13,0,0,0,0,28.71a2,2,0,0,0,4,0,9,9,0,0,1,8.17-8.91,11.87,11.87,0,0,0,8.62,13.47A8.92,8.92,0,0,1,13,37.71a2,2,0,0,0,0,4,13,13,0,0,0,11-6,13,13,0,0,0,11,6,2,2,0,0,0,0-4,8.92,8.92,0,0,1-7.79-4.44A11.87,11.87,0,0,0,35.83,19.8,9,9,0,0,1,44,28.71a2,2,0,1,0,4,0A13,13,0,0,0,35.59,15.74ZM24,28.91a7.12,7.12,0,1,1,7.12-7.12A7.12,7.12,0,0,1,24,28.91Z"/></g></g></svg>