<?xml version="1.0" encoding="iso-8859-1"?>
<!-- Generator: Adobe Illustrator 24.0.0, SVG Export Plug-In . SVG Version: 6.00 Build 0)  -->
<svg version="1.1" xmlns="http://www.w3.org/2000/svg" xmlns:xlink="http://www.w3.org/1999/xlink" x="0px" y="0px"
	 viewBox="0 0 35.993 48" style="enable-background:new 0 0 35.993 48;" xml:space="preserve">
<g id="Layer_49">
	<g>
		<path style="fill:#508FCC;" d="M8.993,11h8l-1.648-7.434C15.141,2.651,14.329,2,13.392,2H7.993c-0.64,0-1.115,0.592-0.976,1.217
			L8.993,11z"/>
		<path style="fill:#508FCC;" d="M22.996,11h0.006h3.99l1.984-9.82c0.11-0.61-0.36-1.18-0.99-1.18h-2.99
			c-1.094,0-1.987,0.909-2.004,2c-0.016-1.091-0.896-2-1.99-2h-3c-0.63,0-1.1,0.57-0.99,1.18l1.98,9.82H22.996z"/>
		<path style="fill:#508FCC;" d="M34.846,28.49L26.996,13h-18l-7.85,15.49c-2.37,5.53-0.89,11.44,2.83,15.28
			c2.5,2.58,5.99,4.23,10.02,4.23h8c4.03,0,7.52-1.65,10.02-4.23C35.736,39.93,37.216,34.02,34.846,28.49z M18.141,22.699
			l0.38-0.219l0.829,1.437c0.889,1.541,0.362,3.51-1.179,4.4l-0.38,0.219l-0.829-1.437C16.072,25.558,16.6,23.588,18.141,22.699z
			 M14.984,18.182c0.438-0.253,0.997-0.103,1.25,0.335l1.22,2.113c0.253,0.438,0.103,0.997-0.335,1.25
			c-0.438,0.253-0.997,0.103-1.25-0.335l-1.22-2.113C14.396,18.995,14.546,18.435,14.984,18.182z M10.594,17.899
			c0.438-0.253,0.997-0.103,1.25,0.335l3.355,5.811c0.253,0.438,0.103,0.997-0.335,1.25c-0.438,0.253-0.997,0.103-1.25-0.335
			l-3.355-5.811C10.007,18.711,10.157,18.152,10.594,17.899z M9.53,25.205l-1.22-2.113c-0.253-0.438-0.103-0.997,0.335-1.25
			c0.438-0.253,0.997-0.103,1.25,0.335l1.22,2.113c0.253,0.438,0.103,0.997-0.335,1.25S9.782,25.643,9.53,25.205z M11.427,28.491
			l-0.829-1.437l0.38-0.22c1.541-0.889,3.51-0.362,4.4,1.179l0.829,1.437l-0.38,0.219C14.286,30.559,12.316,30.031,11.427,28.491z
			 M14.171,33.245l-0.829-1.437l0.38-0.219c1.541-0.889,3.51-0.362,4.4,1.179l0.829,1.437l-0.38,0.22
			C17.031,35.313,15.061,34.786,14.171,33.245z M21.316,39.178c-1.541,0.889-3.51,0.362-4.4-1.179l-0.829-1.437l0.38-0.219
			c1.541-0.889,3.51-0.362,4.4,1.179l0.829,1.437L21.316,39.178z M20.916,33.07l-0.38,0.219l-0.829-1.437
			c-0.889-1.541-0.362-3.51,1.179-4.4l0.38-0.219l0.829,1.437C22.985,30.211,22.457,32.181,20.916,33.07z M23.631,32.207l0.38-0.219
			l0.829,1.437c0.889,1.541,0.362,3.51-1.179,4.4l-0.38,0.22l-0.829-1.437C21.562,35.067,22.09,33.097,23.631,32.207z
			 M25.234,43.256c-0.438,0.253-0.997,0.103-1.25-0.335l-1.677-2.905l1.585-0.915l1.677,2.905
			C25.821,42.443,25.671,43.003,25.234,43.256z"/>
	</g>
</g>
<g id="Layer_1">
</g>
</svg>
