<?xml version="1.0" encoding="iso-8859-1"?>
<!-- Generator: Adobe Illustrator 24.0.0, SVG Export Plug-In . SVG Version: 6.00 Build 0)  -->
<svg version="1.1" xmlns="http://www.w3.org/2000/svg" xmlns:xlink="http://www.w3.org/1999/xlink" x="0px" y="0px"
	 viewBox="0 0 44 44" style="enable-background:new 0 0 44 44;" xml:space="preserve">
<g id="Layer_101">
	<g>
		<g>
			<path style="fill:#508FCC;" d="M14.55,23.277c-0.538-0.535-1.407-0.535-1.944,0L1.606,34.277c-2.139,2.151-2.139,5.626,0,7.778
				l0.341,0.341c2.151,2.139,5.626,2.139,7.778,0l10.999-10.999c0.535-0.538,0.535-1.407,0-1.944L14.55,23.277z"/>
			<path style="fill:#508FCC;" d="M27.928,19.314l7.276-7.276l4.995-0.692c0.536-0.074,1.002-0.406,1.248-0.888l2.348-4.607
				c0.325-0.639,0.203-1.415-0.304-1.922l-3.417-3.417c-0.507-0.507-1.283-0.63-1.922-0.304l-4.607,2.348
				c-0.482,0.246-0.814,0.711-0.888,1.247l-0.692,4.994l-7.277,7.277L27.928,19.314z"/>
			<path style="fill:#508FCC;" d="M32.911,27.997l-16.92-16.919C17.553,6.798,15.35,2.062,11.07,0.5
				C9.795,0.035,8.425-0.109,7.08,0.082C6.577,0.158,6.23,0.628,6.306,1.131c0.029,0.195,0.12,0.375,0.26,0.515l3.54,3.54
				c1.304,1.306,1.304,3.421,0,4.728l-0.202,0.202c-1.305,1.306-3.422,1.306-4.728,0c0,0,0,0,0,0L1.645,6.584
				c-0.36-0.36-0.943-0.36-1.304-0.001c-0.139,0.139-0.23,0.319-0.26,0.514c-0.634,4.507,2.505,8.675,7.012,9.309
				c1.336,0.188,2.697,0.045,3.965-0.416l16.94,16.939c-1.557,4.283,0.652,9.017,4.935,10.574c1.273,0.463,2.641,0.605,3.983,0.414
				c0.503-0.077,0.849-0.547,0.772-1.051c-0.03-0.194-0.121-0.374-0.26-0.513l-3.131-3.131c-1.262-1.262-1.262-3.309,0-4.571
				c0,0,0,0,0,0l0.349-0.349c1.262-1.262,3.309-1.262,4.572,0l3.134,3.134c0.36,0.36,0.944,0.36,1.304,0
				c0.138-0.138,0.229-0.317,0.259-0.511c0.651-4.511-2.478-8.696-6.989-9.347C35.574,27.384,34.194,27.527,32.911,27.997z"/>
		</g>
	</g>
</g>
<g id="Layer_1">
</g>
</svg>
