<?xml version="1.0" encoding="iso-8859-1"?>
<!-- Generator: Adobe Illustrator 24.0.0, SVG Export Plug-In . SVG Version: 6.00 Build 0)  -->
<svg version="1.1" xmlns="http://www.w3.org/2000/svg" xmlns:xlink="http://www.w3.org/1999/xlink" x="0px" y="0px"
	 viewBox="0 0 44 44" style="enable-background:new 0 0 44 44;" xml:space="preserve">
<g id="Layer_103">
	<g>
		<path style="fill:#508FCC;" d="M30.333,32.734c3.601,0,6.53-2.52,6.53-5.618V16.362h3.58c1.308,0,2.367-0.911,2.367-2.037
			s-1.059-2.037-2.367-2.037h-2.611l5.475-4.71c0.925-0.795,0.925-2.084,0-2.88c-0.925-0.795-2.423-0.795-3.348,0l-7.137,6.14
			c-0.444,0.382-0.693,0.899-0.693,1.44v14.837c0,0.851-0.806,1.545-1.796,1.545h-5.975V2.047C24.358,0.921,23.287,0,21.979,0h-19.6
			C1.071,0,0,0.921,0,2.047v39.907C0,43.079,1.071,44,2.379,44h19.6c1.308,0,2.379-0.921,2.379-2.047v-9.219H30.333z M20.789,17.395
			c0,0.563-0.535,1.023-1.189,1.023H4.758c-0.654,0-1.189-0.461-1.189-1.023V5.116c0-0.563,0.535-1.023,1.189-1.023H19.6
			c0.654,0,1.189,0.461,1.189,1.023V17.395z"/>
	</g>
</g>
<g id="Layer_1">
</g>
</svg>
