<?xml version="1.0" encoding="iso-8859-1"?>
<!-- Generator: Adobe Illustrator 24.0.0, SVG Export Plug-In . SVG Version: 6.00 Build 0)  -->
<svg version="1.1" xmlns="http://www.w3.org/2000/svg" xmlns:xlink="http://www.w3.org/1999/xlink" x="0px" y="0px"
	 viewBox="0 0 48 28" style="enable-background:new 0 0 48 28;" xml:space="preserve">
<g id="Layer_77">
	<g>
		<path style="fill:#508FCC;" d="M46.464,7.536c-0.714-0.714-1.872-0.714-2.586,0L40,11.414l-3.879-3.878
			c-0.714-0.714-1.872-0.714-2.586,0c-0.714,0.714-0.714,1.872,0,2.586L37.414,14l-3.879,3.879c-0.714,0.714-0.714,1.872,0,2.586
			c0.714,0.714,1.872,0.714,2.586,0L40,16.586l3.879,3.878c0.714,0.714,1.872,0.714,2.586,0c0.714-0.714,0.714-1.872,0-2.586
			L42.586,14l3.879-3.879C47.178,9.407,47.178,8.25,46.464,7.536z"/>
		<path style="fill:#508FCC;" d="M14.464,7.536c-0.714-0.714-1.872-0.714-2.586,0L8,11.414L4.121,7.536
			c-0.714-0.714-1.872-0.714-2.586,0c-0.714,0.714-0.714,1.872,0,2.586L5.414,14l-3.879,3.879c-0.714,0.714-0.714,1.872,0,2.586
			c0.714,0.714,1.872,0.714,2.586,0L8,16.586l3.879,3.878c0.714,0.714,1.872,0.714,2.586,0c0.714-0.714,0.714-1.872,0-2.586
			L10.586,14l3.879-3.879C15.178,9.407,15.178,8.25,14.464,7.536z"/>
		<path style="fill:#508FCC;" d="M30.464,7.536c-0.714-0.714-1.872-0.714-2.586,0L24,11.414l-3.879-3.878
			c-0.714-0.714-1.872-0.714-2.586,0c-0.714,0.714-0.714,1.872,0,2.586L21.414,14l-3.879,3.879c-0.714,0.714-0.714,1.872,0,2.586
			c0.714,0.714,1.872,0.714,2.586,0L24,16.586l3.879,3.878c0.714,0.714,1.872,0.714,2.586,0c0.714-0.714,0.714-1.872,0-2.586
			L26.586,14l3.879-3.879C31.178,9.407,31.178,8.25,30.464,7.536z"/>
		<path style="fill:#508FCC;" d="M2,4h44c1.104,0,2-0.896,2-2s-0.896-2-2-2H2C0.896,0,0,0.896,0,2S0.896,4,2,4z"/>
		<path style="fill:#508FCC;" d="M46,24H2c-1.104,0-2,0.896-2,2s0.896,2,2,2h44c1.104,0,2-0.896,2-2S47.104,24,46,24z"/>
	</g>
</g>
<g id="Layer_1">
</g>
</svg>
