<?xml version="1.0" encoding="iso-8859-1"?>
<!-- Generator: Adobe Illustrator 24.0.0, SVG Export Plug-In . SVG Version: 6.00 Build 0)  -->
<svg version="1.1" xmlns="http://www.w3.org/2000/svg" xmlns:xlink="http://www.w3.org/1999/xlink" x="0px" y="0px"
	 viewBox="0 0 48 30.176" style="enable-background:new 0 0 48 30.176;" xml:space="preserve">
<g id="Layer_59">
	<g>
		<path style="fill:#508FCC;" d="M48,25.176C48,24.527,47.473,24,46.824,24h-6.938v-5c0-0.552-0.448-1-1-1h-0.984V5.121l2.435,2.441
			c0.584,0.586,1.532,0.586,2.116,0c0.584-0.586,0.584-1.536,0-2.121l-4.986-4.998c-0.001-0.001-0.001-0.003-0.002-0.004
			c-0.004-0.004-0.01-0.005-0.014-0.009c-0.135-0.132-0.294-0.24-0.471-0.314c-0.014-0.006-0.027-0.008-0.041-0.013
			c-0.161-0.062-0.335-0.099-0.518-0.101C36.415,0.003,36.41,0,36.405,0c-0.005,0-0.009,0.002-0.014,0.002
			c-0.185,0.002-0.36,0.039-0.523,0.102c-0.012,0.005-0.024,0.006-0.036,0.011c-0.18,0.075-0.343,0.184-0.479,0.319
			c-0.002,0.002-0.005,0.002-0.007,0.005c-0.001,0.001-0.001,0.003-0.003,0.004l-4.986,4.998c-0.584,0.586-0.584,1.536,0,2.121
			c0.584,0.586,1.532,0.586,2.116,0l2.434-2.439V18H33.91c-0.551,0-0.998,0.447-0.998,0.998V24h-8.979V4c0-2.2-1.8-4-4-4H8.969
			C6.774,0,4.978,1.796,4.978,3.991V24H1.457C0.655,24,0,24.655,0,25.457v3.352c0,0.755,0.612,1.368,1.368,1.368h45.397
			c0.682,0,1.235-0.553,1.235-1.235V25.176z"/>
	</g>
</g>
<g id="Layer_1">
</g>
</svg>
