<svg xmlns="http://www.w3.org/2000/svg" viewBox="0 0 36 44"><defs><style>.cls-1{fill:#508fcc;}</style></defs><title>Asset 35</title><g id="Layer_2" data-name="Layer 2"><g id="Layer_11" data-name="Layer 11"><path class="cls-1" d="M35.67,15.7,18.66.25a1,1,0,0,0-1.32,0L.33,15.7a1,1,0,0,0-.33.74V44H36V16.44A1,1,0,0,0,35.67,15.7ZM30.21,29.79H21.79v8.46A3.75,3.75,0,0,1,18,42H18a3.75,3.75,0,0,1-3.75-3.75V29.79H5.79a3.79,3.79,0,0,1,0-7.58h8.42V13.75A3.75,3.75,0,0,1,18,10H18a3.75,3.75,0,0,1,3.75,3.75v8.46h8.42a3.79,3.79,0,1,1,0,7.58Z"/></g></g></svg>