<?xml version="1.0" encoding="iso-8859-1"?>
<!-- Generator: Adobe Illustrator 24.0.0, SVG Export Plug-In . SVG Version: 6.00 Build 0)  -->
<svg version="1.1" xmlns="http://www.w3.org/2000/svg" xmlns:xlink="http://www.w3.org/1999/xlink" x="0px" y="0px"
	 viewBox="0 0 48 35" style="enable-background:new 0 0 48 35;" xml:space="preserve">
<g id="Layer_108">
	<path style="fill:#508FCC;" d="M47,33.603v-0.105C47,32.671,46.329,32,45.502,32H39v-4.06c5.481-0.597,9.479-6.119,7.475-12.068
		C45.271,12.299,41.78,10,38.01,10h-0.04H29V3h17.5C47.328,3,48,2.329,48,1.5S47.328,0,46.5,0h-38C7.672,0,7,0.671,7,1.5
		S7.672,3,8.5,3H26v7h-0.27H8.74C8.161,8.338,6.626,7.127,4.794,7.009C2.282,6.848-0.001,8.984,0,11.501
		C0.001,13.991,2.01,16,4.5,16c1.729,0,3.239-0.97,3.979-2.408L17,17v2h0.007C17.006,19.044,17,19.087,17,19.132
		c0,4.75,3.76,8.617,8.482,8.846c0.02,0.003,0.038,0.01,0.058,0.012C25.67,28,25.79,28,25.92,28H27v4h-8.577
		C17.637,32,17,32.637,17,33.423v0.154C17,34.363,17.637,35,18.423,35h27.18C46.374,35,47,34.375,47,33.603z M30,32v-4h6v4H30z"/>
</g>
<g id="Layer_1">
</g>
</svg>
