<svg xmlns="http://www.w3.org/2000/svg" viewBox="0 0 36 44"><defs><style>.cls-1{fill:#508fcc;}</style></defs><title>Asset 43</title><g id="Layer_2" data-name="Layer 2"><g id="Layer_2-2" data-name="Layer 2"><path class="cls-1" d="M35.67,15.7,18.66.25a1,1,0,0,0-1.32,0L.33,15.7a1,1,0,0,0-.33.74V44H36V16.44A1,1,0,0,0,35.67,15.7ZM13,24a2,2,0,1,1-2,2A2,2,0,0,1,13,24ZM31,35.5a1.5,1.5,0,0,1-3,0V34H8v1.5a1.5,1.5,0,0,1-3,0v-13a1.5,1.5,0,0,1,3,0V31H31Zm0-9.36A1.86,1.86,0,0,1,29.14,28H19.86A1.86,1.86,0,0,1,18,26.14v-.28A1.86,1.86,0,0,1,19.86,24h9.28A1.86,1.86,0,0,1,31,25.86Z"/></g></g></svg>