<svg xmlns="http://www.w3.org/2000/svg" viewBox="0 0 48 48"><defs><style>.cls-1{fill:#508fcc;}</style></defs><title>Asset 25</title><g id="Layer_2" data-name="Layer 2"><g id="Layer_21" data-name="Layer 21"><path class="cls-1" d="M40,23H37.92a7,7,0,0,0-13.84,0H8a8,8,0,0,0-8,8v9a8,8,0,0,0,8,8H40a8,8,0,0,0,8-8V31A8,8,0,0,0,40,23ZM27.13,23a4,4,0,0,1,7.74,0A3.66,3.66,0,0,1,35,24a4,4,0,0,1-8,0A3.66,3.66,0,0,1,27.13,23ZM20.5,36A3.5,3.5,0,1,1,24,32.5,3.5,3.5,0,0,1,20.5,36Z"/><path class="cls-1" d="M18.5,17A8.5,8.5,0,1,0,10,8.5,8.51,8.51,0,0,0,18.5,17Zm0-14A5.5,5.5,0,1,1,13,8.5,5.5,5.5,0,0,1,18.5,3Z"/></g></g></svg>