<svg xmlns="http://www.w3.org/2000/svg" viewBox="0 0 37.15 48"><defs><style>.cls-1{fill:#508fcc;}</style></defs><title>Asset 39</title><g id="Layer_2" data-name="Layer 2"><g id="Layer_6" data-name="Layer 6"><path class="cls-1" d="M7,48H30.52a6.67,6.67,0,0,0,5.65-10.15L25.76,20.66a1.69,1.69,0,0,1-.23-.84V11.88a1.61,1.61,0,0,1,1.6-1.62h.56a1.61,1.61,0,0,0,1.6-1.62v-7A1.61,1.61,0,0,0,27.69,0H9.36A1.61,1.61,0,0,0,7.75,1.62v7a1.61,1.61,0,0,0,1.61,1.62h.55a1.61,1.61,0,0,1,1.61,1.62v7.93a1.7,1.7,0,0,1-.24.85L1.05,37.31A7,7,0,0,0,7,48Zm4.5-43.15V4.79c0-.9.71-1,1.6-1H23.8c.89,0,1.6.1,1.6,1h0A1.6,1.6,0,0,1,23.8,6.4h-.56A1.62,1.62,0,0,0,21.64,8V20.8a1.64,1.64,0,0,0,.24.86l5.71,9.26a1.62,1.62,0,0,1-1.37,2.47H10.69a1.62,1.62,0,0,1-1.37-2.47L15,21.65a1.55,1.55,0,0,0,.24-.84V8.08a1.61,1.61,0,0,0-1.6-1.61h-.56A1.61,1.61,0,0,1,11.46,4.85Z"/></g></g></svg>