<svg xmlns="http://www.w3.org/2000/svg" viewBox="0 0 48 28.04"><defs><style>.cls-1{fill:none;}.cls-2{fill:#508fcc;}.cls-3{fill:#4f8fcc;}.cls-4{fill:#fff;}</style></defs><title>Asset 2</title><g id="Layer_2" data-name="Layer 2"><g id="Layer_1-2" data-name="Layer 1"><path class="cls-1" d="M33.92,7.87a4.74,4.74,0,0,0-3.75-3.75,2.7,2.7,0,0,0-.41-.06l-.48,0H27v7h7V8.76c0-.16,0-.32,0-.48A2.7,2.7,0,0,0,33.92,7.87Z"/><path class="cls-2" d="M17.31,20a4.47,4.47,0,0,0-5.61,0A4.48,4.48,0,0,0,10,23.55a1.34,1.34,0,0,0,0,.2c0,.1,0,.19,0,.29a4.5,4.5,0,0,0,9,0c0-.1,0-.19,0-.29a1.34,1.34,0,0,0,0-.2A4.48,4.48,0,0,0,17.31,20Z"/><path class="cls-2" d="M39.31,20a4.47,4.47,0,0,0-5.61,0A4.48,4.48,0,0,0,32,23.55a1.34,1.34,0,0,0,0,.2c0,.1,0,.19,0,.29A4.5,4.5,0,0,0,41,24c0-.1,0-.19,0-.29a1.34,1.34,0,0,0,0-.2A4.48,4.48,0,0,0,39.31,20Z"/><rect class="cls-2" x="41.96" width="1" height="11.04"/><polygon class="cls-3" points="19.96 12 20.96 12 20.96 9 23.96 9 23.96 8 20.96 8 20.96 5 24.96 5 24.96 4 19.96 4 19.96 12"/><path class="cls-3" d="M27,11h7V8.76c0-.16,0-.32,0-.48a2.7,2.7,0,0,0-.06-.41,4.74,4.74,0,0,0-3.75-3.75,2.7,2.7,0,0,0-.41-.06l-.48,0H27v7Z"/><path class="cls-3" d="M6,12H7c0-1.88,0-4.12,0-6,.73,1.61,1.26,3.39,2,5h1c.66-1.67,1.33-3.33,2-5v6h1V4H11.67L9.5,9.94H9.45L8.27,6.76,7.24,4H6Z"/><path class="cls-3" d="M0,7V17.09A1,1,0,0,0,1,18H4a0,0,0,0,1,0,0v2H4a2,2,0,0,0-1.41.59A2,2,0,0,0,2,22.5,2.11,2.11,0,0,0,4.14,24H8a2.71,2.71,0,0,1,0-.29,1.27,1.27,0,0,1,0-.2,6.5,6.5,0,1,1,13,0,1.27,1.27,0,0,1,0,.2A2.71,2.71,0,0,1,21,24H30a2.71,2.71,0,0,1,0-.29,1.27,1.27,0,0,1,0-.2,6.5,6.5,0,1,1,13,0,1.27,1.27,0,0,1,0,.2A2.71,2.71,0,0,1,43,24h3a2,2,0,0,0,2-2,2,2,0,0,0-2-2V12a1,1,0,0,0-1-1H38V9.88A9.87,9.87,0,0,0,28.16,0H5A1,1,0,0,0,4,1V6H1A1,1,0,0,0,0,7Z"/><path class="cls-4" d="M14,10.85A3.34,3.34,0,0,0,16.49,12,2.24,2.24,0,0,0,19,9.81a2.14,2.14,0,0,0-1.5-2.07l-1-.47c-.56-.26-1.2-.54-1.2-1.28s.54-1.13,1.35-1.13a2.26,2.26,0,0,1,1.65.73L18.72,5a2.92,2.92,0,0,0-2.14-1A2.11,2.11,0,0,0,14.3,6.05a2.17,2.17,0,0,0,1.47,2l1,.48c.68.32,1.21.57,1.21,1.36s-.57,1.26-1.51,1.26a2.73,2.73,0,0,1-2-1Z"/><polygon class="cls-4" points="19.96 12 20.96 12 20.96 9 23.96 9 23.96 8 20.96 8 20.96 5 24.96 5 24.96 4 19.96 4 19.96 12"/><path class="cls-4" d="M9.5,9.94H9.45L8.27,6.76,7.24,4H6v8H7c0-1.88,0-4.12,0-6,.73,1.61,1.26,3.39,2,5h1c.66-1.67,1.33-3.33,2-5v6h1V4H11.67Z"/></g></g></svg>