<svg xmlns="http://www.w3.org/2000/svg" viewBox="0 0 43.99 44"><defs><style>.cls-1{fill:#508fcc;}.cls-2{fill:none;stroke:#508fcc;stroke-miterlimit:10;}</style></defs><title>Asset 11</title><g id="Layer_2" data-name="Layer 2"><g id="Layer_39" data-name="Layer 39"><path class="cls-1" d="M10.5,8.36C4.41,8.36,0,13.09,0,19.61a1.76,1.76,0,0,0,1.62,1.88,1.76,1.76,0,0,0,1.61-1.88,7,7,0,0,1,4-6.56L4,30.85a.82.82,0,0,0,.8,1H6.45V42.12A1.77,1.77,0,0,0,8.07,44a1.76,1.76,0,0,0,1.61-1.88V31.81H11.3V42.12A1.76,1.76,0,0,0,12.92,44a1.76,1.76,0,0,0,1.61-1.88V31.81h1.62a.82.82,0,0,0,.79-1l-3.21-17.8a7.05,7.05,0,0,1,4,6.56,1.76,1.76,0,0,0,1.62,1.88A1.76,1.76,0,0,0,21,19.61C21,13.09,16.58,8.36,10.5,8.36Z"/><ellipse class="cls-1" cx="10.49" cy="3.24" rx="3.23" ry="3.24"/><g id="Layer_40" data-name="Layer 40"><path class="cls-1" d="M33.49,8.36C27.41,8.36,23,13.09,23,19.61a1.77,1.77,0,0,0,1.62,1.88,1.76,1.76,0,0,0,1.61-1.88,7.64,7.64,0,0,1,3.23-6.56V42.12a1.63,1.63,0,1,0,3.23,0V28.05H34.3V42.12a1.63,1.63,0,1,0,3.23,0V13.05a7.64,7.64,0,0,1,3.23,6.56,1.63,1.63,0,1,0,3.23,0C44,13.09,39.57,8.36,33.49,8.36Z"/><ellipse class="cls-1" cx="33.49" cy="3.24" rx="3.23" ry="3.24"/></g><g id="Layer_38" data-name="Layer 38"><line class="cls-2" x1="21.99" x2="21.99" y2="44"/></g></g></g></svg>