<?xml version="1.0" encoding="iso-8859-1"?>
<!-- Generator: Adobe Illustrator 24.0.0, SVG Export Plug-In . SVG Version: 6.00 Build 0)  -->
<svg version="1.1" xmlns="http://www.w3.org/2000/svg" xmlns:xlink="http://www.w3.org/1999/xlink" x="0px" y="0px"
	 viewBox="0 0 37 48" style="enable-background:new 0 0 37 48;" xml:space="preserve">
<g id="Layer_70">
	<g>
		<path style="fill:#508FCC;" d="M18.409,38.07c-0.646-0.518-1.423-0.792-2.246-0.792c-1.106,0-2.137,0.499-2.826,1.37
			c-1.239,1.568-0.982,3.86,0.575,5.109c0.646,0.518,1.422,0.792,2.245,0.792c1.107,0,2.137-0.5,2.826-1.371
			C20.223,41.612,19.965,39.32,18.409,38.07z"/>
		<path style="fill:#508FCC;" d="M20.676,25.091h-4.353C7.308,25.091,0,32.417,0,41.455v5.59C0,47.572,0.428,48,0.956,48h35.063
			C36.561,48,37,47.561,37,47.018v-5.564C37,32.417,29.692,25.091,20.676,25.091z M26.698,29.059l-0.705,4.347
			c-0.052,0.32-0.268,0.588-0.568,0.704c-0.105,0.041-0.216,0.061-0.326,0.061c-0.201,0-0.401-0.068-0.564-0.199l-0.761-0.61
			l-3.121,3.743c1.764,2.111,1.87,5.256,0.1,7.495c-1.12,1.417-2.796,2.23-4.596,2.23c-2.998,0-5.87-2.355-5.848-6.075
			c0.005-0.806,0.176-1.615,0.523-2.343c1.019-2.14,3.078-3.414,5.332-3.414c0.95,0,1.886,0.24,2.723,0.681l3.117-3.738l-1-0.802
			c-0.258-0.207-0.383-0.538-0.329-0.865c0.055-0.327,0.28-0.598,0.591-0.709l4.236-1.513c0.302-0.107,0.638-0.047,0.883,0.16
			C26.631,28.419,26.749,28.741,26.698,29.059z"/>
		<ellipse style="fill:#508FCC;" cx="18.5" cy="10.909" rx="10.882" ry="10.909"/>
	</g>
</g>
<g id="Layer_1">
</g>
</svg>
