<?xml version="1.0" encoding="iso-8859-1"?>
<!-- Generator: Adobe Illustrator 24.0.0, SVG Export Plug-In . SVG Version: 6.00 Build 0)  -->
<svg version="1.1" xmlns="http://www.w3.org/2000/svg" xmlns:xlink="http://www.w3.org/1999/xlink" x="0px" y="0px"
	 viewBox="0 0 42 48.051" style="enable-background:new 0 0 42 48.051;" xml:space="preserve">
<g id="Layer_71">
	<path style="fill:#508FCC;" d="M41.17,0.541c-0.629-0.527-1.488-0.681-2.259-0.408L28.074,3.994
		c-0.794,0.282-1.372,0.974-1.511,1.809c-0.138,0.834,0.182,1.679,0.841,2.206l2.557,2.047l-7.973,9.538
		c-2.141-1.126-4.534-1.737-6.965-1.737c-4.604,0-8.89,2.073-11.757,5.69c-5.16,6.51-4.088,16.028,2.39,21.213
		c2.65,2.121,5.969,3.29,9.351,3.29c4.605,0,8.891-2.075,11.757-5.692c4.528-5.713,4.255-13.738-0.257-19.125l7.984-9.551
		l1.946,1.558c0.418,0.333,0.928,0.508,1.443,0.508c0.281,0,0.564-0.051,0.833-0.155c0.768-0.298,1.321-0.982,1.454-1.798
		l1.802-11.093C42.102,1.892,41.798,1.068,41.17,0.541z M22.235,38.733c-1.762,2.222-4.396,3.499-7.228,3.499
		c-2.106,0-4.091-0.7-5.743-2.021c-3.981-3.187-4.639-9.036-1.47-13.038c1.762-2.222,4.398-3.496,7.228-3.496
		c2.106,0,4.092,0.699,5.745,2.02C24.747,28.885,25.406,34.734,22.235,38.733z"/>
</g>
<g id="Layer_1">
</g>
</svg>
