<?xml version="1.0" encoding="iso-8859-1"?>
<!-- Generator: Adobe Illustrator 24.0.0, SVG Export Plug-In . SVG Version: 6.00 Build 0)  -->
<svg version="1.1" xmlns="http://www.w3.org/2000/svg" xmlns:xlink="http://www.w3.org/1999/xlink" x="0px" y="0px"
	 viewBox="0 0 25.987 48" style="enable-background:new 0 0 25.987 48;" xml:space="preserve">
<g id="Layer_74">
	<g>
		<path style="fill:#508FCC;" d="M12.991,10C5.464,10,0,15.047,0,22c0,1.104,0.896,2,2,2s2-0.896,2-2c0-3.012,1.517-5.638,3.991-7
			v12.273v1.832V46c0,1.105,0.896,2,2,2s2-0.895,2-2V31h2v15c0,1.105,0.896,2,2,2s2-0.895,2-2V29.104v-1.832V14.999
			c2.477,1.361,3.996,3.988,3.996,7.001c0,1.104,0.896,2,2,2s2-0.896,2-2C25.987,15.047,20.521,10,12.991,10z"/>
		<circle style="fill:#508FCC;" cx="12.991" cy="4" r="4"/>
	</g>
</g>
<g id="Layer_1">
</g>
</svg>
