<?xml version="1.0" encoding="iso-8859-1"?>
<!-- Generator: Adobe Illustrator 24.0.0, SVG Export Plug-In . SVG Version: 6.00 Build 0)  -->
<svg version="1.1" xmlns="http://www.w3.org/2000/svg" xmlns:xlink="http://www.w3.org/1999/xlink" x="0px" y="0px"
	 viewBox="0 0 44 43" style="enable-background:new 0 0 44 43;" xml:space="preserve">
<g id="Layer_50">
	<g>
		<path style="fill-rule:evenodd;clip-rule:evenodd;fill:#508FCC;" d="M39.487,17.916c-1.166,0-2.228-0.604-3.032-1.597
			c-0.701-0.866-1.961-0.866-2.661,0c-0.804,0.993-1.866,1.597-3.032,1.597c-1.166,0-2.228-0.604-3.032-1.597
			c-0.701-0.866-1.961-0.866-2.661,0c-0.804,0.993-1.866,1.597-3.032,1.597c-1.165,0-2.228-0.604-3.032-1.597
			c-0.701-0.866-1.961-0.866-2.661,0c-0.804,0.993-1.866,1.597-3.032,1.597c-1.175,0-2.246-0.614-3.052-1.622
			c-0.702-0.878-1.92-0.878-2.622,0c-0.806,1.008-1.877,1.622-3.052,1.622c-0.422,0-0.83-0.079-1.218-0.228
			c-1.105-0.423-2.262,0.476-2.262,1.741l0,21.726c0,1.019,0.765,1.844,1.71,1.844h3.078h32.21h3.078c0.944,0,1.71-0.826,1.71-1.844
			l0-21.637c0-1.253-1.13-2.222-2.228-1.815C40.289,17.842,39.895,17.916,39.487,17.916z"/>
		<path style="fill-rule:evenodd;clip-rule:evenodd;fill:#508FCC;" d="M44,9.557L38.517,1.23C38.008,0.459,37.185,0,36.307,0H7.271
			C6.23,0,5.261,0.576,4.705,1.526L0,9.557h0.043l-0.029,0.04c0,3.445,2.031,6.238,4.537,6.238c2.072,0,3.82-1.91,4.363-4.519
			c0.543,2.609,2.291,4.519,4.362,4.519c2.072,0,3.82-1.91,4.363-4.519c0.543,2.609,2.291,4.519,4.362,4.519s3.82-1.91,4.362-4.519
			c0.543,2.609,2.291,4.519,4.363,4.519c2.072,0,3.82-1.91,4.362-4.519c0.543,2.609,2.291,4.519,4.363,4.519
			c2.506,0,4.537-2.793,4.537-6.238c0,0-0.01-0.014-0.03-0.04H44z"/>
	</g>
</g>
<g id="Layer_1">
</g>
</svg>
