<svg xmlns="http://www.w3.org/2000/svg" viewBox="0 0 48 48"><defs><style>.cls-1{fill:#508fcc;}</style></defs><title>Asset 27</title><g id="Layer_2" data-name="Layer 2"><g id="Layer_19" data-name="Layer 19"><path class="cls-1" d="M48,37.06a68.44,68.44,0,0,0-5.31-15,72.25,72.25,0,0,0-3.78-6.73l2-1.91a3.39,3.39,0,0,0,0-4.92,3.68,3.68,0,0,0-5.1,0l-1,1A75.61,75.61,0,0,0,26.58.58a2.2,2.2,0,0,0-3,0L15,8.89a2,2,0,0,0,.6,3.36A85.52,85.52,0,0,1,26,18l-24.91,24a3.4,3.4,0,0,0,0,4.93,3.7,3.7,0,0,0,5.1,0L31.85,22.17c1.9,1.48,3.81,3.09,5.71,4.87A80.56,80.56,0,0,1,47,37.49.56.56,0,0,0,48,37.06Z"/></g></g></svg>