<svg xmlns="http://www.w3.org/2000/svg" viewBox="0 0 48 30"><defs><style>.cls-1,.cls-2{fill:#508fcc;}.cls-2{fill-rule:evenodd;}</style></defs><title>Asset 36</title><g id="Layer_2" data-name="Layer 2"><g id="Layer_10" data-name="Layer 10"><circle class="cls-1" cx="11" cy="26" r="4"/><path class="cls-2" d="M35,22a4,4,0,1,0,4,4A4,4,0,0,0,35,22Z"/><path class="cls-2" d="M43.42,14H43V11a5,5,0,0,0-5-5H33V3a3,3,0,0,0-3-3H3A3,3,0,0,0,0,3V26H5a6,6,0,0,1,12,0H29a6,6,0,0,1,4-5.65A5.8,5.8,0,0,1,35,20a6,6,0,0,1,6,6h5.47A1.52,1.52,0,0,0,48,24.47V18.58A4.58,4.58,0,0,0,43.42,14Zm-18.85-.49H20V18a2,2,0,0,1-2,2h0a2,2,0,0,1-2-2v-4.5H11.37a2,2,0,1,1,0-4h4.55V5a2,2,0,0,1,2-2h0a2,2,0,0,1,2,2v4.5h4.55a2,2,0,1,1,0,4ZM40,14H33V9h4.11A2.89,2.89,0,0,1,40,11.89Z"/></g></g></svg>