<svg xmlns="http://www.w3.org/2000/svg" viewBox="0 0 23.02 48"><defs><style>.cls-1{fill:#508fcc;}</style></defs><title>Asset 16</title><g id="Layer_2" data-name="Layer 2"><g id="Layer_31" data-name="Layer 31"><path class="cls-1" d="M13.81,41.14v3.43a3.45,3.45,0,0,1-6.9,0V41.14H5.76a3.43,3.43,0,1,1,0-6.85h6.79a3.43,3.43,0,1,0,0-6.86H10.5A10.4,10.4,0,0,1,0,17.17a10.36,10.36,0,0,1,6.91-9.7v-4a3.45,3.45,0,0,1,6.9,0V6.86h3.46a3.43,3.43,0,1,1,0,6.85H10.5a3.54,3.54,0,0,0-3.59,3.46,3.51,3.51,0,0,0,3.59,3.4h2.05a10.32,10.32,0,0,1,1.26,20.57Z"/></g></g></svg>