<?xml version="1.0" encoding="iso-8859-1"?>
<!-- Generator: Adobe Illustrator 24.0.0, SVG Export Plug-In . SVG Version: 6.00 Build 0)  -->
<svg version="1.1" xmlns="http://www.w3.org/2000/svg" xmlns:xlink="http://www.w3.org/1999/xlink" x="0px" y="0px"
	 viewBox="0 0 44 44" style="enable-background:new 0 0 44 44;" xml:space="preserve">
<g id="Layer_87">
	<g>
		<g>
			<path style="fill:#508FCC;" d="M37.377,23.496c-0.831,1.527-1.434,2.473-1.807,2.845c-1.475,1.892-3.324,3.435-5.534,4.639
				c-1.943,1.06-3.996,1.669-6.169,1.804c-2.164,0.136-4.274-0.104-6.305-0.722c-2.028-0.634-3.892-1.608-5.575-2.949
				c-1.684-1.343-3.035-3.006-4.049-4.994c-1.065-2.038-1.687-4.148-1.876-6.343c-0.18-2.199,0.035-4.302,0.663-6.302
				c0.625-2.013,1.63-3.861,3.014-5.548c1.384-1.685,3.089-3.085,5.124-4.195c2.865-1.483,6.255-2.009,10.184-1.596l-5.196,1.46
				c-1.801,0.962-3.301,2.189-4.498,3.668c-1.203,1.48-2.066,3.101-2.6,4.848c-0.531,1.76-0.717,3.577-0.556,5.447
				c0.158,1.864,0.701,3.684,1.627,5.438c0.925,1.76,2.104,3.239,3.531,4.444c1.428,1.199,3.014,2.06,4.748,2.595
				c1.731,0.527,3.519,0.722,5.367,0.587c1.845-0.135,3.645-0.669,5.408-1.596L37.377,23.496z"/>
			<polygon style="fill:#508FCC;" points="33.777,12.885 35.435,17.537 31.483,14.762 27.541,17.537 29.133,12.885 25.119,10.049 
				30.037,10.049 31.483,5.674 33.145,10.049 38,10.049 			"/>
		</g>
		<path style="fill:#508FCC;" d="M42.625,41.224H1.375C0.616,41.224,0,41.846,0,42.612S0.616,44,1.375,44h41.25
			C43.384,44,44,43.379,44,42.612S43.384,41.224,42.625,41.224z"/>
		<path style="fill:#508FCC;" d="M5.042,39.374h33.917c0.759,0,1.375-0.621,1.375-1.388s-0.616-1.388-1.375-1.388H5.042
			c-0.759,0-1.375,0.621-1.375,1.388S4.282,39.374,5.042,39.374z"/>
	</g>
</g>
<g id="Layer_1">
</g>
</svg>
