<?xml version="1.0" encoding="iso-8859-1"?>
<!-- Generator: Adobe Illustrator 24.0.0, SVG Export Plug-In . SVG Version: 6.00 Build 0)  -->
<svg version="1.1" xmlns="http://www.w3.org/2000/svg" xmlns:xlink="http://www.w3.org/1999/xlink" x="0px" y="0px"
	 viewBox="0 0 48 48" style="enable-background:new 0 0 48 48;" xml:space="preserve">
<g id="Layer_56">
	<path style="fill:#508FCC;" d="M45.121,5l2.44-2.44c0.586-0.586,0.586-1.535,0-2.121s-1.535-0.586-2.121,0l-45,45
		c-0.586,0.586-0.586,1.535,0,2.121C0.732,47.854,1.116,48,1.5,48s0.768-0.146,1.061-0.439l22.44-22.44l2.439,2.439
		C27.73,27.85,28.12,28,28.5,28h1c0.38,0,0.77-0.15,1.06-0.44l2.94-2.939l2.94,2.94C36.732,27.854,37.116,28,37.5,28
		s0.768-0.146,1.061-0.439l9-9c0.586-0.586,0.586-1.535,0-2.121l-2.94-2.94l2.939-2.939C47.86,10.26,48,9.88,48,9.5v-1
		c0-0.38-0.14-0.76-0.44-1.06L45.121,5z M38.5,11.621l1.879,1.879l-2.379,2.379L36.121,14L38.5,11.621z M29,24.88L27.121,23
		l2.379-2.379l1.879,1.879L29,24.88z M31.621,18.5L34,16.121L35.879,18l-2.379,2.379L31.621,18.5z M37.5,24.379L35.621,22.5
		L38,20.121L39.879,22L37.5,24.379z M42,19.879L40.121,18l2.379-2.379l1.879,1.879L42,19.879z M42.501,11.379L40.621,9.5
		l2.379-2.379L44.88,9L42.501,11.379z"/>
</g>
<g id="Layer_1">
</g>
</svg>
