<?xml version="1.0" encoding="iso-8859-1"?>
<!-- Generator: Adobe Illustrator 24.0.0, SVG Export Plug-In . SVG Version: 6.00 Build 0)  -->
<svg version="1.1" xmlns="http://www.w3.org/2000/svg" xmlns:xlink="http://www.w3.org/1999/xlink" x="0px" y="0px"
	 viewBox="0 0 48 48" style="enable-background:new 0 0 48 48;" xml:space="preserve">
<g id="Layer_57">
	<g>
		<path style="fill:#508FCC;" d="M22.521,31.007l-3.659-3.659c-0.637-0.637-1.579-0.859-2.433-0.574l-14.4,4.807
			c-1.555,0.513-2.396,2.194-1.875,3.757c0.151,0.454,0.395,0.849,0.706,1.16c0.773,0.773,1.941,1.084,3.051,0.714l11.015-3.673
			l-9.248,9.34c-1.172,1.172-1.172,3.071,0,4.243s3.071,1.172,4.243,0l14.297-14.418L22.521,31.007z"/>
		<path style="fill:#508FCC;" d="M30.582,22.097l2.121,2.121L47.121,9.921c1.172-1.172,1.172-3.071,0-4.243s-3.071-1.172-4.243,0
			l-9.34,9.248l3.673-11.015c0.37-1.109,0.059-2.278-0.714-3.051c-0.311-0.311-0.706-0.555-1.16-0.706
			c-1.563-0.521-3.244,0.32-3.757,1.875l-4.807,14.4c-0.285,0.855-0.063,1.797,0.574,2.434L30.582,22.097z"/>
		<path style="fill:#508FCC;" d="M26.815,30.217l0.803,0.803c-0.003,0.061-0.018,0.118-0.018,0.18c0,1.988,1.612,3.6,3.6,3.6
			c0.337,0,0.656-0.061,0.965-0.148c0.043,0.055,0.064,0.121,0.114,0.172l1.848,1.848c0.352,0.352,0.812,0.527,1.273,0.527
			s0.921-0.176,1.273-0.527c0.703-0.703,0.703-1.842,0-2.545l-1.848-1.848c-0.051-0.051-0.117-0.071-0.172-0.114
			c0.086-0.309,0.148-0.628,0.148-0.965c0-1.988-1.612-3.6-3.6-3.6c-0.062,0-0.119,0.015-0.18,0.018l-0.803-0.803L13.734,10.332
			c-0.961-0.961-2.501-0.978-3.44-0.038c-0.939,0.939-0.922,2.48,0.038,3.44L26.815,30.217z"/>
	</g>
</g>
<g id="Layer_1">
</g>
</svg>
