<svg xmlns="http://www.w3.org/2000/svg" viewBox="0 0 36 44"><defs><style>.cls-1{fill:#508fcc;}.cls-2{fill:#fff;}</style></defs><title>Asset 44</title><g id="Layer_2" data-name="Layer 2"><g id="Layer_117" data-name="Layer 117"><path class="cls-1" d="M35.67,15.7,18.66.25a1,1,0,0,0-1.32,0L.33,15.7a1,1,0,0,0-.33.74V44H36V16.44A1,1,0,0,0,35.67,15.7Z"/><g id="Layer_120" data-name="Layer 120"><path class="cls-2" d="M16.15,31.19a4.26,4.26,0,0,0,3.34,1.7,3.31,3.31,0,0,0,1.29-6.33l-1.36-.7c-.75-.38-1.59-.8-1.59-1.9a1.63,1.63,0,0,1,1.79-1.68,2.85,2.85,0,0,1,2.17,1.08l.64-.94A3.66,3.66,0,0,0,19.62,21a2.93,2.93,0,0,0-3,3,3.17,3.17,0,0,0,1.93,3l1.38.72c.9.48,1.59.85,1.59,2a1.8,1.8,0,0,1-2,1.87,3.53,3.53,0,0,1-2.64-1.42Z"/></g><g id="Layer_115" data-name="Layer 115"><path class="cls-2" d="M9.61,29.83H9.53L7.75,25.11C7.27,23.84,6.67,22.26,6.2,21H4.25V32.89H5.76c0-2.8,0-6.12,0-8.92,1.12,2.4,1.91,5,3,7.43h1.51q1.52-3.7,3-7.43c0,3,0,6,0,8.92h1.49V21H12.88S9.66,29.68,9.61,29.83Z"/></g><g id="Layer_114" data-name="Layer 114"><polygon class="cls-2" points="24.07 32.89 25.66 32.89 25.66 28.43 30.41 28.43 30.41 26.95 25.66 26.95 25.66 22.49 32 22.49 32 21 24.07 21 24.07 32.89"/></g></g></g></svg>