<svg xmlns="http://www.w3.org/2000/svg" viewBox="0 0 36 44"><defs><style>.cls-1{fill:#508fcc;}.cls-2{fill:#fff;}</style></defs><title>Asset 45</title><g id="Layer_2" data-name="Layer 2"><g id="Layer_116" data-name="Layer 116"><path class="cls-1" d="M35.67,15.7,18.66.25a1,1,0,0,0-1.32,0L.33,15.7a1,1,0,0,0-.33.74V44H36V16.44A1,1,0,0,0,35.67,15.7Z"/><g id="Layer_119" data-name="Layer 119"><path id="path6" class="cls-2" d="M19.67,23.13c2.42-.71,4.43-1.28,5.76-1.58l.36-.09a.19.19,0,0,0,.11,0,.22.22,0,0,0,0-.18c0-.06-.07-.14-.05-.18s.1-.25.11-.28a.18.18,0,0,0-.07-.11s0-.13,0-.17a.37.37,0,0,0-.13-.12s-.06-.2-.06-.23v-.06s0,0,0-.05-.07,0-.08-.08,0,0,0-.06l-.05-.06s0,0,0-.09a.51.51,0,0,1,0-.09l-.12-.09s0,0,0-.05,0-.05,0-.07l-.17-.05s-.09,0-.13,0a.41.41,0,0,0-.12,0,.43.43,0,0,1-.18.06c-.05,0-.08,0-.12,0s0,0-.22,0-1.76.5-1.76.5-4.33,1.28-7,2.38A57.61,57.61,0,0,0,8,26.29a.4.4,0,0,0-.13.13l0,0h3.33c1.84-.85,4.21-1.81,5.77-2.36.83-.3,1.26-.48,2.74-1m-4.35-3.26a.19.19,0,0,0,.06.13s0,.07,0,.12a.73.73,0,0,0,.09.11c.05,0,.05.1.11.23a.65.65,0,0,0,.15.19.5.5,0,0,0,.18.15c.1.06.05.16.16.15a.66.66,0,0,1,.28,0c.06,0,0,0,.11,0s0,0,.08,0,0,.08.15.1a.33.33,0,0,0,.2,0c.13,0,.23-.05.27-.13s.14-.17.2-.24.07,0,.13,0,.07-.18.14-.22.19-.21.27-.27a2.33,2.33,0,0,0,.37-.54,3.12,3.12,0,0,0,.24-.64c0-.12,0-.15,0-.24a.89.89,0,0,0,.05-.32,1.27,1.27,0,0,0,0-.29,1.23,1.23,0,0,1,0-.18.45.45,0,0,1-.06-.15.23.23,0,0,0-.08-.18c-.07,0-.09-.18-.14-.27s-.1-.09-.1-.17-.17-.2-.23-.27-.2-.2-.26-.2h-.13c-.07,0-.07,0-.11-.06a.25.25,0,0,0-.2,0c0,.06,0,0-.11,0a.34.34,0,0,0-.14,0s-.11,0-.13.07a.26.26,0,0,1-.16.09,1.59,1.59,0,0,0-.24.16,3.44,3.44,0,0,0-.76.78,2,2,0,0,0-.28.72,4.11,4.11,0,0,0-.14.42,3.73,3.73,0,0,0,0,.74c0,.08.07.11.07.15m8.86,6.58a.94.94,0,0,0,.18-.09c.17-.09,1.54-.69,1.7-.77l1.55-.72s.4-.15.68-.29.26-.11.32-.25a3.18,3.18,0,0,0-.22-.84,5.31,5.31,0,0,0-.42-.86,6,6,0,0,0-.43-.57.3.3,0,0,0-.18,0,2.22,2.22,0,0,0-.33.07s-.81.27-1,.32-4.88,1.59-5.5,1.83-.76.24-1.88.72c-.24.11-.38.13-.39.22s.05.07.12.12l.37.25a1.69,1.69,0,0,1,.34.28.84.84,0,0,0,.19.23,1.16,1.16,0,0,1,.28.25,1.05,1.05,0,0,0,.15.15h0l.24.22.12,0,.17.2a.84.84,0,0,1,.1.1c0,.06.3.31.3.31a1,1,0,0,1,.17.16c.07.08.14.13.16.2a.47.47,0,0,0,.16.19c.08.06.15,0,.25-.07s.68-.36.79-.4,1.5-.7,2-1M7.45,26.9l.09,0s.06,0,.09,0,0,0,0,0,0,.08.07.11.07,0,.09.07,0,0,0,.1,0,.07,0,.08,0,0,0,.06,0,.12,0,.13,0,0,0,0,0,0,0,0a0,0,0,0,0,0,0,.12.12,0,0,0,0,.05.16.16,0,0,0,0,.08.14.14,0,0,0,.14,0,.26.26,0,0,1,.09-.06c.07,0,.09-.09.17-.13s.09-.09.13-.09.08-.06.12,0,.08,0,.12,0,.06,0,.08,0,0,0,.05,0,0,0,0,0l.06-.06s.06-.06.11-.08A.34.34,0,0,1,9.22,27c.06,0,0,0,.08.05s.06,0,.12.06.07,0,.08,0,0,.08.09.07.08-.06.14-.09c.41-.22.9-.45,1.43-.7H7.83s0,.08-.07.1l-.07,0s-.07,0-.09.05l-.07.06s0,0-.08,0,0,0,0,.08,0,.08,0,.08m24.49,0a3.45,3.45,0,0,0-.12-.43h0a2.77,2.77,0,0,0-.3-.73.33.33,0,0,0-.3-.08l-2.54.57-1,.24h0L25.53,27c-.67.16-3.41,1-3.92,1.2,0,0-.12,0-.12.09s0,.05.08.1.15.12.29.27.18.25.24.3a.32.32,0,0,1,.11.16s.05.06.06.1,0,.05.06.13a.52.52,0,0,0,.1.18,3.58,3.58,0,0,1,.46.53,1.62,1.62,0,0,0,.21.31,1.88,1.88,0,0,1,.09.19c.12.26.31.79.34.81s0-.12,0-.05v.05c0,.16.08.53.1.79h.28l1.36-.51c.87-.32,1.65-.57,2.25-.79.27-.1-.06-1.3-.06-1.3s1.51-.5,2.27-.72c.43-.12,2-.5,2-.53s.16-.21.17-.28a3,3,0,0,0,0-1.15m-19.5,7c.21-.08.16-.17.19-.23s0-.11.07-.22a3.48,3.48,0,0,0,.24-.64s.11-.21.09-.25a1.1,1.1,0,0,1,.13-.42,1.56,1.56,0,0,0,.11-.28,2.09,2.09,0,0,1,.17-.37c0-.06.06-.21.1-.34s.24-.68.24-.68a3.11,3.11,0,0,0,.24-.57c0-.05.12-.22.14-.3s0-.13.05-.17a1.14,1.14,0,0,0,.19-.4,2.41,2.41,0,0,1,.26-.5,1.47,1.47,0,0,1,.21-.54,1.14,1.14,0,0,0,.13-.38,1.33,1.33,0,0,1,.11-.3c.05-.08.15-.28.18-.33a.85.85,0,0,0,0-.23c0-.07.1-.13.11-.19s0-.07,0-.11v-.12a.22.22,0,0,0,0-.18c0-.07-.19,0-.38.1l-.4.18h0c-1.25.59-4.94,2.4-4.94,2.4L6.33,30.6a11.42,11.42,0,0,0-1.64,1,.7.7,0,0,0-.07.59h0c0,.13.06.29.11.47.16.59.29.88.4.95.27.18.94-.29,1.61-.55,1.48-.58,2.2-.78,2.2-.78s.17,0,.08,0c-.31.22-1.46.76-2,1.06-.7.39-2.8,1.52-2.9,1.66s-.26.22-.23.48a4,4,0,0,0,.34,1.09,1.57,1.57,0,0,0,.67.78c.22.07.29-.1.64-.24l5.28-2.51,1.63-.69m11.47-1.76h-.28a.45.45,0,0,1,0,.11l.27-.11m-3.73,1.21c0-.07,0-.1,0-.15s0-.14-.06-.19,0-.08,0-.16-.14-.47-.18-.58a.5.5,0,0,1,0-.13h0c0-.06-.05-.13-.07-.17s0-.09,0-.15a1.88,1.88,0,0,0-.18-.33,1.07,1.07,0,0,0-.06-.17s-.07-.09-.07-.12a.21.21,0,0,0-.06-.1s-.11-.08-.11-.13,0,0,0-.1-.09-.12-.12-.17a1.58,1.58,0,0,0-.3-.41c-.05,0-.15-.07-.16-.13a.77.77,0,0,0-.15-.16s-.05,0-.07-.06,0-.07-.06-.08-.07,0-.07,0a.6.6,0,0,1-.1-.11.37.37,0,0,0-.16-.13c-.05,0-.05,0-.09-.08s0,0-.08,0-.17.41-.22.46a.49.49,0,0,0-.1.22,7.89,7.89,0,0,1-.37.8,1.11,1.11,0,0,0-.13.29c0,.13,0,.15-.08.2a1.65,1.65,0,0,0-.15.26l-.15.37a.17.17,0,0,1,0,.06h0l-.2.35c-.14.23-.13.31-.18.35s-.05.15-.1.23-.08.15-.14.24a3.42,3.42,0,0,0-.16.33,1.09,1.09,0,0,1-.12.26.86.86,0,0,0-.14.25.71.71,0,0,1-.12.23,1.21,1.21,0,0,0-.11.21c-.07.11-.18.33-.26.44s-.1.26-.16.34,0,.1-.09.15,0,.06-.11.07-.12,0-.11,0,0-.11,0-.11,0,0-.08,0-.05,0-.12.06,0,0-.09,0-.07,0-.13,0,0,0-.11.05-.13,0-.13,0,0,0,0-.07,0-.08-.05-.06-.08,0-.11,0,0,0-.07-.06-.09,0-.12,0-.06-.07-.12-.08a.22.22,0,0,0-.17,0c-.06,0,0,.06-.07.06s-.07,0-.09,0,0-.13,0-.15-.07,0-.13,0,0,0,0-.08,0,0-.11,0,0,0-.06-.07-.08,0-.13,0a.15.15,0,0,1-.14-.08.78.78,0,0,1,0-.28s0,0-.07,0a3.84,3.84,0,0,0-.35.18s-1.15.67-1.23.74a.35.35,0,0,0-.14.22,2.58,2.58,0,0,0,0,.57,3.38,3.38,0,0,0,.23.84,1.92,1.92,0,0,0,.42.55.38.38,0,0,0,.22.11c.08,0,.54-.28.77-.38s1.29-.66,1.43-.72,2.37-1.18,2.47-1.24,2.16-1,2.26-1.08l1.68-.81s.08,0,.06-.09a.36.36,0,0,1-.05-.19"/></g></g></g></svg>