<?xml version="1.0" encoding="iso-8859-1"?>
<!-- Generator: Adobe Illustrator 24.0.0, SVG Export Plug-In . SVG Version: 6.00 Build 0)  -->
<svg version="1.1" xmlns="http://www.w3.org/2000/svg" xmlns:xlink="http://www.w3.org/1999/xlink" x="0px" y="0px"
	 viewBox="0 0 48 28.044" style="enable-background:new 0 0 48 28.044;" xml:space="preserve">
<g id="Layer_106">
	<g>
		<path style="fill:none;" d="M33.92,7.874c-0.37-1.9-1.85-3.38-3.75-3.75c-0.13-0.03-0.27-0.05-0.41-0.06
			c-0.16-0.01-0.32-0.02-0.48-0.02H27v5.35v1.65h7v-2.28c0-0.16-0.01-0.32-0.02-0.479C33.97,8.144,33.95,8.004,33.92,7.874z"/>
		<path style="fill:#508FCC;" d="M17.31,20.044c-0.76-0.62-1.74-0.99-2.8-0.99c-1.07,0-2.05,0.37-2.81,0.99
			c-1.03,0.82-1.69,2.09-1.69,3.51c0,0.07,0,0.13,0.01,0.2c0,0.1,0.01,0.19,0.01,0.29c0.25,2.25,2.16,4,4.48,4
			c2.31,0,4.22-1.75,4.47-4c0-0.1,0.01-0.19,0.01-0.29c0.01-0.07,0.01-0.13,0.01-0.2C19,22.134,18.34,20.864,17.31,20.044z"/>
		<path style="fill:#508FCC;" d="M39.31,20.044c-0.76-0.62-1.74-0.99-2.8-0.99c-1.07,0-2.05,0.37-2.81,0.99
			c-1.03,0.82-1.69,2.09-1.69,3.51c0,0.07,0,0.13,0.01,0.2c0,0.1,0.01,0.19,0.01,0.29c0.25,2.25,2.16,4,4.48,4
			c2.31,0,4.22-1.75,4.47-4c0-0.1,0.01-0.19,0.01-0.29c0.01-0.07,0.01-0.13,0.01-0.2C41,22.134,40.34,20.864,39.31,20.044z"/>
		<rect x="41.956" y="0" style="fill:#508FCC;" width="1.002" height="11.044"/>
		<g>
			<polygon style="fill:#4F8FCC;" points="19.956,12 20.956,12 20.956,9 23.956,9 23.956,8 20.956,8 20.956,5 24.956,5 24.956,4 
				19.956,4 			"/>
			<path style="fill:#4F8FCC;" d="M27,11.044h7v-2.28c0-0.16-0.01-0.32-0.02-0.479c-0.01-0.14-0.03-0.28-0.06-0.41
				c-0.37-1.9-1.85-3.38-3.75-3.75c-0.13-0.03-0.27-0.05-0.41-0.06c-0.16-0.01-0.32-0.02-0.48-0.02H27v5.35V11.044z"/>
			<path style="fill:#4F8FCC;" d="M5.956,12c0.322,0,0.678,0,1,0c-0.012-1.882,0.012-4.118,0-6c0.736,1.613,1.264,3.387,2,5
				c0.236,0,0.764,0,1,0c0.667-1.667,1.333-3.333,2-5c0.003,2,0.005,4,0.007,6c0.331,0,0.662,0,0.993,0c0-2.667,0-5.333,0-8
				c-0.429,0-0.857,0-1.286,0c0,0-2.133,5.839-2.171,5.942c-0.017,0-0.034,0-0.051,0C9.058,8.888,8.66,7.815,8.269,6.762
				C7.954,5.913,7.558,4.849,7.242,4C6.813,4,6.385,4,5.956,4C5.956,6.667,5.956,9.333,5.956,12z"/>
			<path style="fill:#4F8FCC;" d="M0,7v10.088c0,0.528,0.428,0.956,0.956,0.956h3.018C3.988,18.044,4,18.056,4,18.07v1.974H3.99
				c-0.55,0-1.05,0.22-1.41,0.59c-0.457,0.457-0.705,1.14-0.538,1.863c0.216,0.939,1.138,1.547,2.102,1.547H8.03
				c-0.01-0.09-0.01-0.19-0.01-0.29c-0.01-0.06-0.01-0.13-0.01-0.2c0-1.29,0.38-2.49,1.03-3.51c1.16-1.8,3.18-2.99,5.47-2.99
				s4.31,1.19,5.46,2.99c0.65,1.02,1.03,2.22,1.03,3.51c0,0.07,0,0.14-0.01,0.2c0,0.1,0,0.2-0.01,0.29h9.05
				c-0.01-0.09-0.01-0.19-0.01-0.29c-0.01-0.06-0.01-0.13-0.01-0.2c0-1.29,0.38-2.49,1.03-3.51c1.16-1.8,3.18-2.99,5.47-2.99
				s4.31,1.19,5.46,2.99c0.65,1.02,1.03,2.22,1.03,3.51c0,0.07,0,0.14-0.01,0.2c0,0.1,0,0.2-0.01,0.29H46
				c0.55,0,1.05-0.22,1.41-0.59c0.37-0.36,0.59-0.86,0.59-1.41c0-1.1-0.9-2-2-2v-8c0-0.552-0.448-1-1-1h-1.934H42.96h-1.004H38
				V9.882c0-5.411-4.427-9.838-9.838-9.838H4.963C4.433,0.044,4,0.478,4,1.007v5.037H0.956C0.428,6.044,0,6.472,0,7z"/>
			<g>
				<path style="fill:#FFFFFF;" d="M13.956,10.854C14.589,11.558,15.472,12,16.489,12c1.522,0,2.467-0.974,2.467-2.193
					c0-1.148-0.653-1.68-1.491-2.063l-1.032-0.476c-0.567-0.256-1.198-0.533-1.198-1.277c0-0.69,0.538-1.127,1.349-1.127
					c0.669,0,1.2,0.277,1.644,0.723l0.489-0.63C18.208,4.396,17.442,4,16.583,4c-1.315,0-2.279,0.869-2.279,2.048
					c0,1.135,0.791,1.68,1.466,1.987l1.04,0.489c0.684,0.318,1.208,0.57,1.208,1.358c0,0.75-0.564,1.254-1.514,1.254
					c-0.753,0-1.477-0.38-1.998-0.956L13.956,10.854z"/>
			</g>
		</g>
		<polygon style="fill:#FFFFFF;" points="19.956,12 20.956,12 20.956,9 23.956,9 23.956,8 20.956,8 20.956,5 24.956,5 24.956,4 
			19.956,4 		"/>
		<path style="fill:#FFFFFF;" d="M9.499,9.942c-0.017,0-0.034,0-0.051,0C9.058,8.888,8.66,7.815,8.269,6.762
			C7.954,5.913,7.558,4.849,7.242,4C6.813,4,6.385,4,5.956,4c0,2.667,0,5.333,0,8c0.322,0,0.678,0,1,0c-0.012-1.882,0.012-4.118,0-6
			c0.736,1.613,1.264,3.387,2,5c0.236,0,0.764,0,1,0c0.667-1.667,1.333-3.333,2-5c0.003,2,0.005,4,0.007,6c0.331,0,0.662,0,0.993,0
			c0-2.667,0-5.333,0-8c-0.429,0-0.857,0-1.286,0C11.67,4,9.537,9.839,9.499,9.942z"/>
	</g>
</g>
<g id="Layer_1">
</g>
</svg>
