<?xml version="1.0" encoding="iso-8859-1"?>
<!-- Generator: Adobe Illustrator 24.0.0, SVG Export Plug-In . SVG Version: 6.00 Build 0)  -->
<svg version="1.1" xmlns="http://www.w3.org/2000/svg" xmlns:xlink="http://www.w3.org/1999/xlink" x="0px" y="0px"
	 viewBox="0 0 38.213 48" style="enable-background:new 0 0 38.213 48;" xml:space="preserve">
<g id="Layer_80">
	<g>
		<path style="fill:#508FCC;" d="M10.213,8.5c0,3.59,2.91,6.5,6.5,6.5s6.5-2.91,6.5-6.5c0-0.52-0.06-1.02-0.18-1.5h-12.64
			C10.273,7.48,10.213,7.98,10.213,8.5z"/>
		<path style="fill:#508FCC;" d="M11.213,5h0.02h10.96h0.02c1.1,0,2-0.92,2-2.06V2.06c0-1.15-0.91-2.06-2.01-2.06h-0.12l-11,0.76
			c-1.05,0.07-1.87,0.97-1.87,2.05v0.13C9.213,4.08,10.113,5,11.213,5z"/>
		<path style="fill:#508FCC;" d="M36.173,29.82c-1.97-4.15-5.25-7.51-9.34-9.56l1.79-3.1c0.55-0.96,0.23-2.18-0.73-2.73l3.5-6.06
			l0.75-1.3c0.14-0.24,0.06-0.55-0.18-0.69l-2.17-1.25c-0.47-0.27-1.09-0.11-1.36,0.37c-0.09,0.16-0.14,0.33-0.14,0.5
			c0,0.35,0.18,0.68,0.5,0.87l-3.63,6.29c-0.69,0-1.36,0.36-1.73,1l-2.41,4.18c-1.23-0.23-2.5-0.34-3.81-0.34
			c-2.67,0-5.22,0.47-7.55,1.35l0.02,0.03l0.47,0.82l2.56,4.43h0.01l0.01,0.04l2.32,4.01l0.76,1.32l9.74,16.87
			c0.41-0.51,0.66-1.16,0.66-1.87V26.87c2.34,1.69,4.12,4.06,5.12,6.87c0.57,1.62,0.88,3.39,0.88,5.26c0,1.66,1.34,3,3,3s3-1.34,3-3
			C38.213,35.69,37.483,32.58,36.173,29.82z M21.213,29c-1.1,0-2-0.9-2-2c0-1.1,0.9-2,2-2s2,0.9,2,2
			C23.213,28.1,22.313,29,21.213,29z"/>
		<path style="fill:#508FCC;" d="M9.913,25.77l-3.403-6.73c-0.349-1.536-0.537-3.105-0.529-4.457
			c0.017-1.717,0.329-3.487,0.967-5.245c0.566-1.56-0.236-3.277-1.797-3.843c-1.56-0.566-3.277,0.236-3.843,1.797
			c-1.129,3.111-1.504,6.284-1.214,9.325C0.505,20.937,2.264,25,5.112,28.236l0.016-0.015l3.085,3.481V45c0,1.66,1.34,3,3,3h11.53
			L9.923,25.8L9.913,25.77z"/>
	</g>
</g>
<g id="Layer_1">
</g>
</svg>
