<?xml version="1.0" encoding="iso-8859-1"?>
<!-- Generator: Adobe Illustrator 24.0.0, SVG Export Plug-In . SVG Version: 6.00 Build 0)  -->
<svg version="1.1" xmlns="http://www.w3.org/2000/svg" xmlns:xlink="http://www.w3.org/1999/xlink" x="0px" y="0px"
	 viewBox="0 0 25.92 44" style="enable-background:new 0 0 25.92 44;" xml:space="preserve">
<g id="Layer_75">
	<g>
		<path style="fill:#508FCC;" d="M12.96,11.88C5.814,11.88,0,17.21,0,23.76c0,1.193,0.967,2.16,2.16,2.16s2.16-0.967,2.16-2.16
			c0-2.554,1.345-4.57,3.24-5.877v6.958h10.8v-6.958c1.895,1.308,3.24,3.324,3.24,5.877c0,1.193,0.967,2.16,2.16,2.16
			c1.193,0,2.16-0.967,2.16-2.16C25.92,17.21,20.107,11.88,12.96,11.88z"/>
		<circle style="fill:#508FCC;" cx="12.96" cy="4.86" r="4.86"/>
		<path style="fill:#508FCC;" d="M9.871,40.069c-1.447-1.004-2.311-2.657-2.311-4.428c0-2,1.098-3.752,2.719-4.682
			c0.155-0.089,0.19-0.293,0.063-0.42l-2.735-2.735c-0.095-0.095-0.249-0.109-0.357-0.03c-2.43,1.773-4.01,4.635-4.01,7.867
			c0,3.152,1.522,6.103,4.085,7.912c0.888,0.627,2.154,0.563,2.89-0.237C11.127,42.325,10.939,40.796,9.871,40.069z"/>
		<path style="fill:#508FCC;" d="M18.671,27.774c-0.109-0.079-0.262-0.065-0.357,0.03l-2.735,2.735
			c-0.127,0.127-0.092,0.331,0.063,0.42c1.621,0.93,2.719,2.682,2.719,4.682c0,1.771-0.864,3.424-2.311,4.428
			c-0.983,0.67-1.22,2.02-0.54,3.002C15.919,43.676,16.6,44,17.28,44c0.421,0,0.853-0.13,1.231-0.389
			c2.614-1.804,4.169-4.784,4.169-7.971C22.68,32.409,21.1,29.547,18.671,27.774z"/>
	</g>
</g>
<g id="Layer_1">
</g>
</svg>
