<?xml version="1.0" encoding="iso-8859-1"?>
<!-- Generator: Adobe Illustrator 24.0.0, SVG Export Plug-In . SVG Version: 6.00 Build 0)  -->
<svg version="1.1" xmlns="http://www.w3.org/2000/svg" xmlns:xlink="http://www.w3.org/1999/xlink" x="0px" y="0px"
	 viewBox="0 0 36 44" style="enable-background:new 0 0 36 44;" xml:space="preserve">
<g id="Layer_51">
	<g>
		<path style="fill:#508FCC;" d="M35.672,15.702L18.664,0.253c-0.379-0.337-0.95-0.337-1.329,0L0.328,15.702
			C0.119,15.892,0,16.161,0,16.443V44h14h8h14V16.443C36,16.161,35.881,15.892,35.672,15.702z M12.691,33.463
			c0,0.46-0.32,0.87-0.77,0.97c-0.08,0.02-0.15,0.03-0.23,0.03c-0.37,0-0.72-0.21-0.89-0.55l-3.11-6.21v5.76c0,0.55-0.45,1-1,1
			s-1-0.45-1-1v-10c0-0.46,0.32-0.87,0.77-0.97c0.45-0.11,0.92,0.11,1.12,0.52l3.11,6.21v-5.76c0-0.55,0.45-1,1-1s1,0.45,1,1V33.463
			z M21.691,30.963c0,1.93-1.57,3.5-3.5,3.5s-3.5-1.57-3.5-3.5v-5.5c0-1.65,1.35-3,3-3h2c0.55,0,1,0.45,1,1s-0.45,1-1,1h-2
			c-0.55,0-1,0.45-1,1v5.5c0,0.83,0.67,1.5,1.5,1.5s1.5-0.67,1.5-1.5v-1.5h-1c-0.55,0-1-0.45-1-1s0.45-1,1-1h1c1.1,0,2,0.9,2,2
			V30.963z M29.691,31.485c0,1.654-1.35,3.007-3,3.007s-3-1.353-3-3.007v-6.015c0-1.654,1.35-3.007,3-3.007s3,1.353,3,3.007V31.485z
			"/>
		<path style="fill:#508FCC;" d="M26.641,25C26.287,25,26,25.287,26,25.641v5.718C26,31.713,26.287,32,26.641,32
			c0.354,0,0.641-0.287,0.641-0.641v-5.718C27.282,25.287,26.995,25,26.641,25z"/>
	</g>
</g>
<g id="Layer_1">
</g>
</svg>
