<?xml version="1.0" encoding="iso-8859-1"?>
<!-- Generator: Adobe Illustrator 24.0.0, SVG Export Plug-In . SVG Version: 6.00 Build 0)  -->
<svg version="1.1" xmlns="http://www.w3.org/2000/svg" xmlns:xlink="http://www.w3.org/1999/xlink" x="0px" y="0px"
	 viewBox="0 0 44 44" style="enable-background:new 0 0 44 44;" xml:space="preserve">
<g id="Layer_88">
	<g>
		<path style="fill:#508FCC;" d="M42.625,41.25H1.375C0.616,41.25,0,41.866,0,42.625S0.616,44,1.375,44h41.25
			C43.384,44,44,43.384,44,42.625S43.384,41.25,42.625,41.25z"/>
		<path style="fill:#508FCC;" d="M5.042,39.417h33.917c0.759,0,1.375-0.616,1.375-1.375s-0.616-1.375-1.375-1.375H5.042
			c-0.759,0-1.375,0.616-1.375,1.375S4.282,39.417,5.042,39.417z"/>
		<rect x="9.167" y="15.583" style="fill:#508FCC;" width="3.667" height="19.25"/>
		<rect x="16.5" y="15.583" style="fill:#508FCC;" width="3.667" height="19.25"/>
		<rect x="23.833" y="15.583" style="fill:#508FCC;" width="3.667" height="19.25"/>
		<rect x="31.167" y="15.583" style="fill:#508FCC;" width="3.667" height="19.25"/>
		<path style="fill:#508FCC;" d="M7.333,13.75h29.333c1.012,0,1.833-0.821,1.833-1.833s-0.821-1.833-1.833-1.833h-13.75v-2.75h8.25
			v-5.5h-8.25V1.375C22.917,0.616,22.301,0,21.542,0s-1.375,0.616-1.375,1.375v8.708H7.333c-1.012,0-1.833,0.821-1.833,1.833
			S6.321,13.75,7.333,13.75z"/>
	</g>
</g>
<g id="Layer_1">
</g>
</svg>
