<svg xmlns="http://www.w3.org/2000/svg" viewBox="0 0 32 46.89"><defs><style>.cls-1{fill:#508fcc;}</style></defs><title>Asset 28</title><g id="Layer_2" data-name="Layer 2"><g id="Layer_18" data-name="Layer 18"><path class="cls-1" d="M30,42.89H25.55L18.37,16.08a4,4,0,1,0-4.74,0L6.45,42.89H2a2,2,0,0,0,0,4H30a2,2,0,0,0,0-4Zm-14-24,1,4-3,3Zm-3,11,5-5,1,5-8,6Zm-3.44,13,.44-1,10-7,2.44,8Z"/><path class="cls-1" d="M22.87,8.08c.58,1.08,2.41.3,3.05-.75a2.27,2.27,0,0,0-.75-3.06C23.41,3.1,19.26,6.88,18.71,7c0,0-.08.06-.05.1C19.4,8,21.94,6.39,22.87,8.08Z"/><path class="cls-1" d="M14,4.89c.74.94.73,2.38,1.2,2.39,0,0,.1,0,.13,0C15.6,6.62,17,3.29,16.63,2A2.71,2.71,0,0,0,13.3.1c-1.54.42-2.37,2.39-1.9,3.33S13.1,3.75,14,4.89Z"/><path class="cls-1" d="M8.44,9.5c.92-1.7,3.47-.12,4.2-1.06,0,0,0-.09-.05-.1C12,8.27,7.86,4.52,6.11,5.71a2.26,2.26,0,0,0-.72,3.06C6,9.81,7.86,10.58,8.44,9.5Z"/></g></g></svg>