<svg xmlns="http://www.w3.org/2000/svg" viewBox="0 0 44 43.94"><defs><style>.cls-1{fill:#508fcc;fill-rule:evenodd;}</style></defs><title>Asset 38</title><g id="Layer_2" data-name="Layer 2"><g id="Layer_7" data-name="Layer 7"><path class="cls-1" d="M44,9.78,38.52,1.26A2.66,2.66,0,0,0,36.31,0h-29A3,3,0,0,0,4.7,1.56L0,9.78H0l0,0c0,3.52,2,6.38,4.54,6.38,2.07,0,3.82-1.95,4.36-4.62.55,2.67,2.29,4.62,4.37,4.62s3.82-1.95,4.36-4.62c.54,2.67,2.29,4.62,4.36,4.62s3.82-1.95,4.36-4.62c.55,2.67,2.29,4.62,4.37,4.62s3.82-1.95,4.36-4.62c.54,2.67,2.29,4.62,4.36,4.62C42,16.2,44,13.34,44,9.82l0,0Z"/><g id="Layer_8" data-name="Layer 8"><path class="cls-1" d="M40.66,18.06a3.33,3.33,0,0,1-1.17.22,3.88,3.88,0,0,1-3-1.64,1.67,1.67,0,0,0-2.67,0,3.62,3.62,0,0,1-6.06,0,1.66,1.66,0,0,0-2.66,0,3.9,3.9,0,0,1-3,1.64,3.88,3.88,0,0,1-3-1.64,1.67,1.67,0,0,0-2.67,0,3.88,3.88,0,0,1-3,1.64,3.93,3.93,0,0,1-3.05-1.66,1.61,1.61,0,0,0-2.62,0,3.93,3.93,0,0,1-3,1.66A3.4,3.4,0,0,1,3.37,18a1.73,1.73,0,0,0-2.26,1.78V42.05a1.8,1.8,0,0,0,1.71,1.89H41.18a1.8,1.8,0,0,0,1.71-1.89V19.91A1.77,1.77,0,0,0,40.66,18.06ZM28.31,32.63H24V37A1.94,1.94,0,0,1,22,38.94h0A1.94,1.94,0,0,1,20,37V32.63H15.69a2,2,0,0,1,0-3.92H20V24.33A1.94,1.94,0,0,1,22,22.39h0A1.94,1.94,0,0,1,24,24.33v4.38h4.35a2,2,0,1,1,0,3.92Z"/></g></g></g></svg>