<?xml version="1.0" encoding="iso-8859-1"?>
<!-- Generator: Adobe Illustrator 24.0.0, SVG Export Plug-In . SVG Version: 6.00 Build 0)  -->
<svg version="1.1" xmlns="http://www.w3.org/2000/svg" xmlns:xlink="http://www.w3.org/1999/xlink" x="0px" y="0px"
	 viewBox="0 0 44.123 44.123" style="enable-background:new 0 0 44.123 44.123;" xml:space="preserve">
<g id="Layer_76">
	<g>
		<path style="fill:#508FCC;" d="M22.061,0C9.928,0,0,9.928,0,22.061c0,12.134,9.928,22.061,22.061,22.061
			s22.061-9.928,22.061-22.061C44.123,9.928,34.195,0,22.061,0z M17.658,39.128l-3.538-6.036l-6.996-1.696
			c-1.536-2.443-2.484-5.279-2.659-8.32l4.581-5.206l-0.436-7.187c1.865-2.199,4.256-3.933,6.974-5.015l6.478,2.716l6.478-2.716
			c2.718,1.083,5.109,2.816,6.974,5.015l-0.436,7.187l4.581,5.206c-0.175,3.041-1.123,5.877-2.659,8.32l-6.996,1.696l-3.538,6.036
			c-1.411,0.367-2.882,0.582-4.404,0.582S19.069,39.495,17.658,39.128z"/>
		<polygon style="fill:#508FCC;" points="30.886,20.076 22.061,13.678 13.237,20.076 16.767,30.445 27.356,30.445 		"/>
	</g>
</g>
<g id="Layer_1">
</g>
</svg>
