<?xml version="1.0" encoding="iso-8859-1"?>
<!-- Generator: Adobe Illustrator 24.0.0, SVG Export Plug-In . SVG Version: 6.00 Build 0)  -->
<svg version="1.1" xmlns="http://www.w3.org/2000/svg" xmlns:xlink="http://www.w3.org/1999/xlink" x="0px" y="0px"
	 viewBox="0 0 36 44" style="enable-background:new 0 0 36 44;" xml:space="preserve">
<g id="Layer_81">
	<g>
		<path style="fill:#508FCC;" d="M35.914,16.038c-0.056-0.126-0.138-0.241-0.242-0.335l-8.504-7.725l-8.504-7.725
			C18.475,0.084,18.237,0,18,0c-0.237,0-0.475,0.084-0.664,0.253L8.832,7.977l-8.504,7.725c-0.104,0.095-0.186,0.209-0.242,0.335
			C0.03,16.164,0,16.302,0,16.443v13.779V44h18h18V30.221V16.443C36,16.302,35.97,16.164,35.914,16.038z M25,24.854v4.125
			c0,0.48-0.047,0.948-0.139,1.399c-0.091,0.451-0.226,0.886-0.401,1.301c0,0.005,0,0.01-0.001,0.015
			c-0.001,0.005-0.004,0.01-0.009,0.015c-0.175,0.415-0.392,0.813-0.645,1.185c-0.252,0.372-0.54,0.72-0.855,1.035
			c-0.635,0.635-1.388,1.148-2.224,1.501S18.97,35.979,18,35.979c-1.45,0-2.797-0.44-3.915-1.194
			c-1.117-0.754-2.005-1.821-2.535-3.076c-0.005-0.005-0.008-0.01-0.009-0.015c-0.001-0.005-0.001-0.01-0.001-0.015
			c-0.175-0.415-0.31-0.85-0.401-1.301C11.047,29.926,11,29.459,11,28.979v-4.125v-4.125c0-0.22,0.075-0.427,0.204-0.596
			c0.129-0.169,0.311-0.299,0.526-0.364l3-0.855l3-0.855c0.085-0.025,0.178-0.038,0.27-0.038c0.093,0,0.185,0.013,0.27,0.038
			l3,0.855l3,0.855c0.215,0.065,0.397,0.195,0.526,0.364C24.925,20.301,25,20.509,25,20.729V24.854z"/>
		<path style="fill:#508FCC;" d="M22.334,25.272l-2.341-0.05c-0.274,0-0.511-0.187-0.598-0.461l-0.772-2.304
			c-0.212-0.61-1.034-0.61-1.245,0l-0.772,2.304c-0.087,0.274-0.324,0.461-0.598,0.461l-2.341,0.05
			c-0.623,0.013-0.884,0.847-0.386,1.233l1.868,1.482c0.212,0.174,0.311,0.473,0.224,0.747L14.7,31.075
			c-0.187,0.623,0.498,1.133,1.009,0.759l1.918-1.395c0.224-0.162,0.523-0.162,0.747,0l1.918,1.395
			c0.51,0.374,1.195-0.137,1.009-0.759l-0.673-2.341c-0.087-0.274,0.012-0.573,0.224-0.747l1.868-1.482
			C23.218,26.119,22.956,25.285,22.334,25.272z"/>
	</g>
</g>
<g id="Layer_1">
</g>
</svg>
