<?xml version="1.0" encoding="iso-8859-1"?>
<!-- Generator: Adobe Illustrator 24.0.0, SVG Export Plug-In . SVG Version: 6.00 Build 0)  -->
<svg version="1.1" xmlns="http://www.w3.org/2000/svg" xmlns:xlink="http://www.w3.org/1999/xlink" x="0px" y="0px"
	 viewBox="0 0 38 48" style="enable-background:new 0 0 38 48;" xml:space="preserve">
<g id="Layer_102">
	<path style="fill:#508FCC;" d="M37.121,32.879c-1.172-1.172-3.07-1.172-4.242,0C29.817,35.941,25.984,37.388,22,38V24h7
		c1.657,0,3-1.343,3-3s-1.343-3-3-3h-7v-6.81c1.79-1.03,3-2.97,3-5.19c0-3.31-2.69-6-6-6s-6,2.69-6,6c0,2.22,1.21,4.16,3,5.19V18H9
		c-1.657,0-3,1.343-3,3s1.343,3,3,3h7v14c-3.984-0.612-7.817-2.059-10.879-5.121c-1.172-1.172-3.07-1.172-4.242,0
		c-1.172,1.171-1.172,3.071,0,4.242C5.112,41.354,10.47,43.354,16,44v1c0,1.657,1.343,3,3,3s3-1.343,3-3v-1
		c5.53-0.646,10.888-2.646,15.121-6.879C38.293,35.95,38.293,34.05,37.121,32.879z M19,4c1.1,0,2,0.9,2,2s-0.9,2-2,2s-2-0.9-2-2
		S17.9,4,19,4z"/>
</g>
<g id="Layer_1">
</g>
</svg>
