<svg xmlns="http://www.w3.org/2000/svg" viewBox="0 0 36 44"><defs><style>.cls-1{fill:#508fcc;}</style></defs><title>Asset 29</title><g id="Layer_2" data-name="Layer 2"><g id="Layer_17" data-name="Layer 17"><path class="cls-1" d="M35.67,15.7,18.66.25a1,1,0,0,0-1.32,0L.33,15.7a1,1,0,0,0-.33.74V44H36V16.44A1,1,0,0,0,35.67,15.7Zm-10.2,7.94L11.21,40.57a.41.41,0,0,1-.34.16.46.46,0,0,1-.23-.06.46.46,0,0,1-.18-.56l5-11.85H10.87a.45.45,0,0,1-.38-.21.46.46,0,0,1,0-.44l6.69-13.36a.44.44,0,0,1,.39-.25h7.13a.45.45,0,0,1,.38.68l-5.21,8.23h5.28a.44.44,0,0,1,.4.26A.43.43,0,0,1,25.47,23.64Z"/></g></g></svg>