<?xml version="1.0" encoding="iso-8859-1"?>
<!-- Generator: Adobe Illustrator 24.0.0, SVG Export Plug-In . SVG Version: 6.00 Build 0)  -->
<svg version="1.1" xmlns="http://www.w3.org/2000/svg" xmlns:xlink="http://www.w3.org/1999/xlink" x="0px" y="0px"
	 viewBox="0 0 44 44" style="enable-background:new 0 0 44 44;" xml:space="preserve">
<g id="Layer_65">
	<path style="fill:#508FCC;" d="M44,27.767H33.263l-2.713-4.774c-0.378-0.646-0.173-1.482,0.458-1.87l5.788-3.553
		c0.633-0.386,1.453-0.177,1.833,0.468l4.913,8.636C43.738,27.017,43.892,27.385,44,27.767z M43.922,30.652H29.17v-2.936
		c-0.01-0.426-0.357-0.763-0.775-0.752c-0.221,0.006-0.429,0.11-0.568,0.285l-5.334,6.634c-0.752,0.933-0.752,2.279,0,3.212
		l5.366,6.62c0.263,0.331,0.74,0.381,1.064,0.112c0.179-0.148,0.282-0.372,0.279-0.607v-2.936l6.709-0.023
		c1.685-0.004,3.24-0.926,4.079-2.417l3.552-6.354C43.695,31.223,43.822,30.943,43.922,30.652z M18.099,40.232
		c0.739-0.002,1.336-0.615,1.334-1.369c0-0.011,0-0.022,0-0.033l-0.124-6.892c-0.013-0.747-0.611-1.345-1.343-1.342h-5.408
		l-5.366,9.496c0.376,0.096,0.762,0.145,1.15,0.145L18.099,40.232z M0.643,31.508l3.607,6.335c0.154,0.263,0.332,0.51,0.532,0.739
		l7.369-13.035l2.493,1.459c0.362,0.212,0.824,0.084,1.032-0.285c0.111-0.198,0.131-0.436,0.054-0.65l-2.979-8.028
		c-0.42-1.138-1.575-1.81-2.75-1.599l-8.295,1.403c-0.413,0.066-0.695,0.461-0.63,0.882c0.036,0.234,0.175,0.438,0.378,0.554
		l2.493,1.459l-3.313,5.933C-0.215,28.169-0.211,30.015,0.643,31.508z M14.524,2.436l-4.862,8.626
		c-0.366,0.655-0.143,1.489,0.499,1.862c0.005,0.003,0.009,0.005,0.014,0.008l5.912,3.338c0.634,0.351,1.427,0.125,1.792-0.51
		l2.699-4.783l-5.353-9.486C14.954,1.776,14.719,2.093,14.524,2.436z M22.865,16.051l8.304,1.403
		c1.168,0.194,2.309-0.481,2.722-1.613l2.938-8.042c0.146-0.399-0.053-0.843-0.444-0.992c-0.213-0.081-0.45-0.06-0.646,0.057
		l-2.488,1.473l-3.377-5.942C29.025,0.907,27.465-0.005,25.779,0l-7.177,0.023c-0.299,0.004-0.596,0.037-0.889,0.098l7.378,13.021
		l-2.488,1.473c-0.364,0.209-0.493,0.68-0.288,1.051C22.431,15.874,22.633,16.016,22.865,16.051z"/>
</g>
<g id="Layer_1">
</g>
</svg>
