<svg xmlns="http://www.w3.org/2000/svg" viewBox="0 0 36 44"><defs><style>.cls-1{fill:#508fcc;}</style></defs><title>Asset 1</title><g id="Layer_2" data-name="Layer 2"><g id="Layer_46" data-name="Layer 46"><path class="cls-1" d="M35.67,15.7,18.66.25a1,1,0,0,0-1.32,0L.33,15.7a1,1,0,0,0-.33.74V44H36V16.44A1,1,0,0,0,35.67,15.7Zm-5.06,3.63-5.47,6.88a.72.72,0,0,1-.22.17,5.91,5.91,0,0,1-2.25.65.59.59,0,0,0-.45.22L20,30l6.07,7.26a1.66,1.66,0,0,1-2.54,2.13l-5.64-6.75-5.41,6.71a1.65,1.65,0,1,1-2.59-2.06l5.83-7.24-2.76-3.3a.6.6,0,0,0-.53-.21A6.51,6.51,0,0,1,7,24c-2.14-2.56-2.37-5.9-.5-7.46s5.11-.75,7.25,1.81a6.53,6.53,0,0,1,1.59,5.75.62.62,0,0,0,.11.56l2.34,2.79,1.74-2.16a.64.64,0,0,0,.11-.52,5.73,5.73,0,0,1,.07-2.24.62.62,0,0,1,.12-.26l5.59-7a.57.57,0,0,1,.6-.2.59.59,0,0,1,.32.94l-3.75,4.73a.75.75,0,0,0,1.17.93l4-5a.59.59,0,0,1,.83-.1l0,0a.59.59,0,0,1,.1.83l-4,5a.75.75,0,1,0,1.17.94l3.76-4.73a.59.59,0,0,1,1,.1h0A.59.59,0,0,1,30.61,19.33Z"/></g></g></svg>