<?xml version="1.0" encoding="iso-8859-1"?>
<!-- Generator: Adobe Illustrator 24.0.0, SVG Export Plug-In . SVG Version: 6.00 Build 0)  -->
<svg version="1.1" xmlns="http://www.w3.org/2000/svg" xmlns:xlink="http://www.w3.org/1999/xlink" x="0px" y="0px"
	 viewBox="0 0 44 44" style="enable-background:new 0 0 44 44;" xml:space="preserve">
<g id="Layer_53">
	<g>
		<path style="fill:#508FCC;" d="M42.625,41.25H1.375C0.616,41.25,0,41.866,0,42.625S0.616,44,1.375,44h41.25
			C43.384,44,44,43.384,44,42.625S43.384,41.25,42.625,41.25z"/>
		<path style="fill:#508FCC;" d="M25.667,39.417h14.667V16.5c0-0.504-0.412-0.917-0.917-0.917H30.25l-6.417-4.813V7.333h8.25v-5.5
			h-8.25C23.833,0.821,23.012,0,22,0s-1.833,0.821-1.833,1.833v8.938l-6.417,4.813H4.583c-0.504,0-0.917,0.412-0.917,0.917v22.917
			h14.667H25.667z M32.083,20.167c0-0.504,0.412-0.917,0.917-0.917h1.833c0.504,0,0.917,0.412,0.917,0.917v4.583
			c0,0.504-0.412,0.917-0.917,0.917H33c-0.504,0-0.917-0.412-0.917-0.917V20.167z M32.083,30.25c0-0.504,0.412-0.917,0.917-0.917
			h1.833c0.504,0,0.917,0.412,0.917,0.917v4.583c0,0.504-0.412,0.917-0.917,0.917H33c-0.504,0-0.917-0.412-0.917-0.917V30.25z
			 M11.917,34.833c0,0.504-0.412,0.917-0.917,0.917H9.167c-0.504,0-0.917-0.412-0.917-0.917V30.25c0-0.504,0.412-0.917,0.917-0.917
			H11c0.504,0,0.917,0.412,0.917,0.917V34.833z M11.917,24.75c0,0.504-0.412,0.917-0.917,0.917H9.167
			c-0.504,0-0.917-0.412-0.917-0.917v-4.583c0-0.504,0.412-0.917,0.917-0.917H11c0.504,0,0.917,0.412,0.917,0.917V24.75z
			 M25.667,19.25c0,2.026-1.641,3.667-3.667,3.667s-3.667-1.641-3.667-3.667s1.641-3.667,3.667-3.667S25.667,17.224,25.667,19.25z"
			/>
	</g>
</g>
<g id="Layer_1">
</g>
</svg>
