<?xml version="1.0" encoding="iso-8859-1"?>
<!-- Generator: Adobe Illustrator 24.0.0, SVG Export Plug-In . SVG Version: 6.00 Build 0)  -->
<svg version="1.1" xmlns="http://www.w3.org/2000/svg" xmlns:xlink="http://www.w3.org/1999/xlink" x="0px" y="0px"
	 viewBox="0 0 47.887 34.204" style="enable-background:new 0 0 47.887 34.204;" xml:space="preserve">
<g id="Layer_52">
	<path style="fill:#508FCC;" d="M24.181,3.941C22.525,2.357,13.013-3.144,0,2.462C0,2.546,0,4.1,0,6.468v26.745h19.716
		c0.677,0.58,2.285,0.991,4.169,0.991c1.88,0,3.492-0.411,4.171-0.991h19.832V6.468c0-2.368,0-3.922,0-4.006
		C35.41-3.037,25.44,2.78,24.181,3.941z M22.413,31.299c0-1.054-9.256-7.214-19.944-0.493V4.73c2.117-1.214,4.964-1.958,8.106-1.958
		c6.541,0,11.838,2.146,11.838,6.128V31.299z M45.571,4.73v26.076c-10.687-6.721-19.938-0.561-19.938,0.493V8.9
		c0-3.981,5.297-6.128,11.832-6.128C40.607,2.772,43.454,3.516,45.571,4.73z"/>
</g>
<g id="Layer_1">
</g>
</svg>
