<?xml version="1.0" encoding="iso-8859-1"?>
<!-- Generator: Adobe Illustrator 24.0.0, SVG Export Plug-In . SVG Version: 6.00 Build 0)  -->
<svg version="1.1" xmlns="http://www.w3.org/2000/svg" xmlns:xlink="http://www.w3.org/1999/xlink" x="0px" y="0px"
	 viewBox="0 0 48 45.276" style="enable-background:new 0 0 48 45.276;" xml:space="preserve">
<g id="Layer_90">
	<g>
		<path style="fill:#508FCC;" d="M46.488,12.395l-20.998-12c-0.922-0.527-2.055-0.527-2.977,0l-21.001,12
			c-1.438,0.822-1.938,2.655-1.117,4.093c0.822,1.438,2.654,1.938,4.093,1.117L24.001,6.455l19.51,11.149
			C43.981,17.872,44.492,18,44.997,18c1.042,0,2.054-0.543,2.607-1.512C48.426,15.049,47.927,13.217,46.488,12.395z"/>
		<path style="fill:#508FCC;" d="M24.183,21.97c-1.275-1.22-8.6-5.456-18.621-1.139c0,0.065,0,1.262,0,3.085v20.596h15.183
			c0.521,0.447,1.76,0.763,3.21,0.763c1.447,0,2.689-0.317,3.212-0.763h15.272V23.916c0-1.824,0-3.02,0-3.085
			C32.83,16.596,25.152,21.076,24.183,21.97z M22.821,43.038c0-0.812-7.128-5.556-15.358-0.379V22.578
			c1.63-0.935,3.822-1.508,6.242-1.508c5.037,0,9.116,1.653,9.116,4.719V43.038z M40.655,22.578v20.081
			c-8.23-5.176-15.354-0.432-15.354,0.379V25.789c0-3.066,4.079-4.719,9.111-4.719C36.832,21.07,39.025,21.643,40.655,22.578z"/>
	</g>
</g>
<g id="Layer_1">
</g>
</svg>
