<?xml version="1.0" encoding="iso-8859-1"?>
<!-- Generator: Adobe Illustrator 24.0.0, SVG Export Plug-In . SVG Version: 6.00 Build 0)  -->
<svg version="1.1" xmlns="http://www.w3.org/2000/svg" xmlns:xlink="http://www.w3.org/1999/xlink" x="0px" y="0px"
	 viewBox="0 0 48 30.886" style="enable-background:new 0 0 48 30.886;" xml:space="preserve">
<g id="Layer_83">
	<g>
		<path style="fill:#508FCC;" d="M3.015,0.031C0.735,0.098,0.07,7.074,0.07,8.483c0,1.409,5.025,1.946,5.159,3.421
			c0.134,1.475-4.695,15.494-5.159,17.037s1.537,1.945,1.537,1.945l11.403-1.542c0,0,1.811-6.64,2.481-10.263
			c0.67-3.622,5.501-2.414,9.592-2.75c4.092-0.336,4.36-2.683,5.098-5.165c0.737-2.482,1.207-2.348,3.622-2.683
			c2.414-0.336,3.756-2.012,3.756-2.012h9.69c1.435-2.763,0.373-6.445,0.373-6.445S5.296-0.035,3.015,0.031z M25.679,14.127
			c-2.642,0.414-8.223,1.177-8.445-1.304c-0.234-2.624,0.456-3.855,2.32-3.857c0.053,0,0.11,0,0.17-0.001h-0.017
			c-0.05,2.05,2.797,3.566,2.797,3.566c-1.566-1.824-0.729-3.588-0.729-3.588H21.77c2.561-0.034,6.002-0.097,6.002-0.097
			S28.321,13.713,25.679,14.127z"/>
	</g>
</g>
<g id="Layer_1">
</g>
</svg>
