<svg xmlns="http://www.w3.org/2000/svg" viewBox="0 0 43 48"><defs><style>.cls-1{fill:#508fcc;}</style></defs><title>Asset 10</title><g id="Layer_2" data-name="Layer 2"><g id="Layer_62" data-name="Layer 62"><path class="cls-1" d="M19.1,30.34a.2.2,0,0,0-.32,0c-1,1.26-6.16,8-6.16,11.23a6.32,6.32,0,1,0,12.64,0C25.26,38.36,20.08,31.6,19.1,30.34Zm1.51,15.07a.55.55,0,0,1-.55-.55.56.56,0,0,1,.55-.56,1.88,1.88,0,0,0,1.68-2,.56.56,0,0,1,1.11,0A3,3,0,0,1,20.61,45.41Z"/><g id="Layer_63" data-name="Layer 63"><path class="cls-1" d="M22.52,0a7.08,7.08,0,0,0-7.16,7V9.29c-6.45,1.23-11.43,7-12.19,11.59a1,1,0,0,0,1,1.16H32.65a1,1,0,0,0,1-1.18C32.89,16.26,27.76,10.23,21.32,9V6.4A2.4,2.4,0,0,1,23.74,4H42a1,1,0,0,0,1-1V1a1,1,0,0,0-1-1Z"/><path class="cls-1" d="M34.62,24H2.23a2,2,0,1,0,0,4H34.62a2,2,0,1,0,0-4Z"/></g></g></g></svg>