<svg xmlns="http://www.w3.org/2000/svg" viewBox="0 0 48 48"><defs><style>.cls-1{fill:#508fcc;}</style></defs><title>Asset 17</title><g id="Layer_2" data-name="Layer 2"><g id="Layer_30" data-name="Layer 30"><path class="cls-1" d="M47.61,24.28l0-.07a3,3,0,0,0-4-1.09L38.89,25.8a14.82,14.82,0,0,0-1.78-9.08,1.51,1.51,0,0,0-.09-.18l0,0-8.66-15a3,3,0,0,0-4-1.08l-.08,0a3,3,0,0,0-1.08,4L25.8,9.11A14.89,14.89,0,0,0,16.55,11l-.11.06-15,8.65a3,3,0,0,0-1.08,4l0,.07a3,3,0,0,0,4,1.08l4.64-2.68A14.92,14.92,0,0,0,11,31.4a.21.21,0,0,0,0,.07l0,0,8.67,15a3,3,0,0,0,4,1.08l.08,0a3,3,0,0,0,1.08-4l-2.67-4.63a14.74,14.74,0,0,0,8.91-1.7,2.91,2.91,0,0,0,.35-.18l0,0,15-8.67A3,3,0,0,0,47.61,24.28ZM16.22,28.5l0,0a9,9,0,0,1,3.24-12.22l.07,0,0,0a9,9,0,0,1,12.21,3.25l0,.07,0,.05A9,9,0,0,1,28.51,31.8l0,0A9,9,0,0,1,16.22,28.5Z"/></g></g></svg>