<?xml version="1.0" encoding="iso-8859-1"?>
<!-- Generator: Adobe Illustrator 24.0.0, SVG Export Plug-In . SVG Version: 6.00 Build 0)  -->
<svg version="1.1" xmlns="http://www.w3.org/2000/svg" xmlns:xlink="http://www.w3.org/1999/xlink" x="0px" y="0px"
	 viewBox="0 0 44 44" style="enable-background:new 0 0 44 44;" xml:space="preserve">
<g id="Layer_66">
	<g>
		<path style="fill:#508FCC;" d="M42.662,22h-6.013v-4.583c0-0.506-0.41-0.917-0.916-0.917h-0.907V4.695l2.237,2.237
			c0.537,0.537,1.407,0.537,1.944,0c0.537-0.537,0.537-1.408,0-1.945l-4.58-4.581c-0.001-0.001-0.001-0.002-0.002-0.003
			c-0.004-0.004-0.009-0.005-0.013-0.008c-0.124-0.121-0.27-0.22-0.433-0.288c-0.013-0.005-0.025-0.007-0.038-0.012
			c-0.148-0.057-0.308-0.091-0.475-0.093C33.461,0.002,33.457,0,33.452,0c-0.004,0-0.008,0.002-0.013,0.002
			c-0.17,0.001-0.331,0.036-0.48,0.094c-0.011,0.004-0.022,0.006-0.033,0.01c-0.166,0.069-0.315,0.168-0.44,0.293
			c-0.002,0.002-0.004,0.002-0.006,0.004c-0.001,0.001-0.001,0.003-0.002,0.003l-4.58,4.581c-0.537,0.537-0.537,1.408,0,1.945
			c0.537,0.537,1.407,0.537,1.944,0l2.236-2.236V16.5H31.16c-0.506,0-0.916,0.41-0.916,0.917V22h-8.248V3.667
			C21.995,1.65,20.346,0,18.33,0H8.248C6.232,0,4.582,1.65,4.582,3.667V22H1.347c-0.733,0-1.338,0.605-1.338,1.338v4.345
			c0.504-0.11,1.109-0.183,1.824-0.183c2.145,0,3.308,0.632,4.234,1.137c0.77,0.422,1.274,0.697,2.484,0.697
			c1.21,0,1.714-0.275,2.484-0.697c0.926-0.504,2.09-1.137,4.234-1.137c2.145,0,3.309,0.632,4.243,1.137
			c0.761,0.422,1.265,0.697,2.484,0.697c1.21,0,1.714-0.275,2.474-0.697c0.935-0.504,2.09-1.137,4.243-1.137
			c2.144,0,3.308,0.632,4.234,1.137c0.77,0.422,1.274,0.697,2.484,0.697c1.219,0,1.723-0.275,2.493-0.697
			c0.926-0.504,2.089-1.137,4.234-1.137c0.724,0,1.329,0.073,1.842,0.183v-4.345C44,22.605,43.395,22,42.662,22z"/>
		<path style="fill:#508FCC;" d="M42.158,38.5c-2.148,0-3.307,0.632-4.239,1.14c-0.765,0.417-1.271,0.693-2.485,0.693
			c-1.214,0-1.719-0.276-2.485-0.693c-0.932-0.508-2.091-1.14-4.24-1.14c-2.147,0-3.306,0.632-4.237,1.14
			c-0.764,0.417-1.269,0.693-2.482,0.693s-1.718-0.276-2.483-0.693c-0.932-0.508-2.091-1.14-4.239-1.14
			c-2.147,0-3.306,0.632-4.238,1.14c-0.764,0.417-1.269,0.693-2.482,0.693c-1.211,0-1.716-0.276-2.48-0.693
			c-0.931-0.508-2.09-1.14-4.237-1.14C0.821,38.5,0,39.321,0,40.333s0.821,1.833,1.833,1.833c1.212,0,1.717,0.276,2.481,0.693
			C5.245,43.367,6.404,44,8.55,44c2.147,0,3.306-0.632,4.238-1.14c0.764-0.417,1.269-0.693,2.482-0.693s1.718,0.276,2.483,0.693
			c0.932,0.508,2.091,1.14,4.239,1.14c2.147,0,3.306-0.633,4.238-1.14c0.764-0.417,1.269-0.693,2.481-0.693
			c1.215,0,1.72,0.276,2.485,0.693c0.932,0.508,2.091,1.14,4.239,1.14c2.149,0,3.308-0.632,4.24-1.14
			c0.765-0.417,1.271-0.693,2.485-0.693c1.012,0,1.833-0.821,1.833-1.833S43.17,38.5,42.158,38.5z"/>
		<path style="fill:#508FCC;" d="M42.158,31.167c-2.148,0-3.307,0.632-4.239,1.14C37.154,32.724,36.648,33,35.434,33
			c-1.214,0-1.719-0.276-2.485-0.693c-0.932-0.508-2.091-1.14-4.24-1.14c-2.147,0-3.306,0.632-4.237,1.14
			C23.708,32.724,23.204,33,21.991,33s-1.718-0.276-2.483-0.693c-0.932-0.508-2.091-1.14-4.239-1.14
			c-2.147,0-3.306,0.632-4.238,1.14C10.267,32.724,9.763,33,8.55,33c-1.211,0-1.716-0.276-2.48-0.693
			c-0.931-0.508-2.09-1.14-4.237-1.14C0.821,31.167,0,31.988,0,33s0.821,1.833,1.833,1.833c1.212,0,1.717,0.276,2.481,0.693
			c0.931,0.508,2.09,1.14,4.236,1.14c2.147,0,3.306-0.632,4.238-1.14c0.764-0.417,1.269-0.693,2.482-0.693s1.718,0.276,2.483,0.693
			c0.932,0.508,2.091,1.14,4.239,1.14c2.147,0,3.306-0.633,4.238-1.14c0.764-0.417,1.269-0.693,2.481-0.693
			c1.215,0,1.72,0.276,2.485,0.693c0.932,0.508,2.091,1.14,4.239,1.14c2.149,0,3.308-0.632,4.24-1.14
			c0.765-0.417,1.271-0.693,2.485-0.693c1.012,0,1.833-0.821,1.833-1.833S43.17,31.167,42.158,31.167z"/>
	</g>
</g>
<g id="Layer_1">
</g>
</svg>
