<?xml version="1.0" encoding="iso-8859-1"?>
<!-- Generator: Adobe Illustrator 24.0.0, SVG Export Plug-In . SVG Version: 6.00 Build 0)  -->
<svg version="1.1" xmlns="http://www.w3.org/2000/svg" xmlns:xlink="http://www.w3.org/1999/xlink" x="0px" y="0px"
	 viewBox="0 0 44 44.005" style="enable-background:new 0 0 44 44.005;" xml:space="preserve">
<g id="Layer_85">
	<g>
		<path style="fill:#508FCC;" d="M5.5,26.697c0.167,0.263,0.444,0.42,0.722,0.42h10.389l4.611,7.515
			C21.389,34.895,21.667,35,21.944,35s0.556-0.158,0.722-0.368l4.611-7.515h10.389c0.278,0,0.556-0.158,0.722-0.42
			c0.167-0.263,0.167-0.526,0-0.788L33.278,17.5L38.5,9.092c0.167-0.263,0.167-0.526,0-0.788s-0.444-0.42-0.722-0.42H27.333
			l-4.611-7.515C22.556,0.158,22.278,0,22,0s-0.556,0.158-0.722,0.368l-4.611,7.515H6.222c-0.278,0-0.556,0.158-0.722,0.42
			s-0.167,0.526,0,0.788l5.222,8.408L5.5,25.908C5.333,26.171,5.333,26.434,5.5,26.697z M22,32.635l-3.389-5.518h6.833L22,32.635z
			 M36.333,25.541h-8l4-6.464L36.333,25.541z M36.333,9.459l-4,6.464l-4-6.464H36.333z M22,2.365l3.389,5.518h-6.778L22,2.365z
			 M17.611,9.459h8.778l4.944,8.041l-4.944,8.041h-8.778L12.667,17.5L17.611,9.459z M7.667,9.459h8l-4,6.464L7.667,9.459z
			 M11.667,19.077l4,6.464h-8L11.667,19.077z"/>
		<path style="fill:#508FCC;" d="M42.625,41.255H1.375C0.616,41.255,0,41.871,0,42.63s0.616,1.375,1.375,1.375h41.25
			c0.759,0,1.375-0.616,1.375-1.375S43.384,41.255,42.625,41.255z"/>
		<path style="fill:#508FCC;" d="M5.042,39.422h33.917c0.759,0,1.375-0.616,1.375-1.375s-0.616-1.375-1.375-1.375H5.042
			c-0.759,0-1.375,0.616-1.375,1.375S4.282,39.422,5.042,39.422z"/>
	</g>
</g>
<g id="Layer_1">
</g>
</svg>
