<?xml version="1.0" encoding="iso-8859-1"?>
<!-- Generator: Adobe Illustrator 24.0.0, SVG Export Plug-In . SVG Version: 6.00 Build 0)  -->
<svg version="1.1" xmlns="http://www.w3.org/2000/svg" xmlns:xlink="http://www.w3.org/1999/xlink" x="0px" y="0px"
	 viewBox="0 0 37.348 43" style="enable-background:new 0 0 37.348 43;" xml:space="preserve">
<g id="Layer_61">
	<g>
		<ellipse style="fill:#508FCC;" cx="18.666" cy="3.524" rx="18.286" ry="3.524"/>
		<path style="fill:#508FCC;" d="M20.355,27.783c1.54,0,2.789-1.408,2.789-3.141c0-0.307-0.249-0.554-0.558-0.554
			s-0.558,0.248-0.558,0.554c0,1.12-0.751,2.033-1.674,2.033c-0.309,0-0.558,0.248-0.558,0.554S20.046,27.783,20.355,27.783z"/>
		<path style="fill:#508FCC;" d="M35.278,34.942c1.064-0.447,1.674-0.942,1.674-1.466V5.286c0,1.946-8.187,3.524-18.286,3.524
			S0.381,7.232,0.381,5.286v28.19c0,0.528,0.62,1.027,1.7,1.477l-2.039,6.796C-0.145,42.372,0.321,43,0.972,43h0.951
			c0.441,0,0.83-0.289,0.957-0.712l1.954-6.512c3.049,0.68,7.422,1.131,12.348,1.208v5.066c0,0.525,0.425,0.95,0.95,0.95h1.055
			c0.549,0,0.994-0.445,0.994-0.994v-5.022c4.929-0.078,9.302-0.531,12.346-1.213l1.954,6.513C34.608,42.709,35,43,35.444,43h0.892
			c0.678,0,1.164-0.653,0.969-1.302L35.278,34.942z M18.681,30.37c-3.492,0-6.322-2.879-6.322-6.427
			c0-3.212,5.181-9.978,6.163-11.235c0.082-0.103,0.238-0.103,0.32,0c0.982,1.257,6.163,8.023,6.163,11.235
			C25.003,27.491,22.173,30.37,18.681,30.37z"/>
	</g>
</g>
<g id="Layer_1">
</g>
</svg>
