<svg xmlns="http://www.w3.org/2000/svg" viewBox="0 0 48 30.32"><defs><style>.cls-1{fill:#508fcc;}</style></defs><title>Asset 19</title><g id="Layer_2" data-name="Layer 2"><g id="Layer_28" data-name="Layer 28"><path class="cls-1" d="M46.68,26.85c-1.28-9.39-9-16.63-18.34-16.75V9.86A2.24,2.24,0,0,0,26.1,7.64H22.48V4.55H29.2A.55.55,0,0,0,29.75,4V1.23A1.23,1.23,0,0,0,28.52,0H13a1.24,1.24,0,0,0-1.24,1.24h0V4a.55.55,0,0,0,.55.55H19V7.64H15.4a2.23,2.23,0,0,0-2.24,2.22v.23H0V20.17H13.16v.28a2.23,2.23,0,0,0,2.24,2.23H26.1a2.23,2.23,0,0,0,2.24-2.23h0v-.28A9.14,9.14,0,0,1,36.81,27a1.69,1.69,0,0,0-.93,1.51v.18a1.69,1.69,0,0,0,1.69,1.68h8.74A1.68,1.68,0,0,0,48,28.64h0A1.88,1.88,0,0,0,46.68,26.85Z"/></g></g></svg>