<?xml version="1.0" encoding="iso-8859-1"?>
<!-- Generator: Adobe Illustrator 24.0.0, SVG Export Plug-In . SVG Version: 6.00 Build 0)  -->
<svg version="1.1" xmlns="http://www.w3.org/2000/svg" xmlns:xlink="http://www.w3.org/1999/xlink" x="0px" y="0px"
	 viewBox="0 0 44 44" style="enable-background:new 0 0 44 44;" xml:space="preserve">
<g id="Layer_89">
	<g>
		<path style="fill:#508FCC;" d="M42.625,41.25H1.375C0.616,41.25,0,41.866,0,42.625S0.616,44,1.375,44h41.25
			C43.384,44,44,43.384,44,42.625S43.384,41.25,42.625,41.25z"/>
		<path style="fill:#508FCC;" d="M5.042,39.417h33.917c0.759,0,1.375-0.616,1.375-1.375s-0.616-1.375-1.375-1.375H5.042
			c-0.759,0-1.375,0.616-1.375,1.375S4.282,39.417,5.042,39.417z"/>
		<path style="fill:#508FCC;" d="M4.583,29.333h34.833c0.755,0,1.187-0.863,0.733-1.467l-4.125-5.5
			C35.852,22.136,35.58,22,35.292,22H8.708c-0.289,0-0.56,0.136-0.733,0.367l-4.125,5.5C3.397,28.471,3.828,29.333,4.583,29.333z"/>
		<path style="fill:#508FCC;" d="M8.25,20.167h27.5c0.755,0,1.187-0.863,0.733-1.467l-4.125-5.5
			c-0.173-0.231-0.445-0.367-0.733-0.367h-19.25c-0.289,0-0.56,0.136-0.733,0.367l-4.125,5.5C7.063,19.304,7.495,20.167,8.25,20.167
			z"/>
		<path style="fill:#508FCC;" d="M11.001,11H33c0.707,0,1.148-0.767,0.792-1.379l-5.11-9.167C28.518,0.173,28.216,0,27.89,0H16.11
			c-0.326,0-0.627,0.173-0.792,0.455L10.21,9.621C9.853,10.233,10.294,11,11.001,11z"/>
		<path style="fill:#508FCC;" d="M32.083,31.167c-0.506,0-0.917,0.41-0.917,0.917v1.833c0,0.506,0.41,0.917,0.917,0.917h3.667
			c0.506,0,0.917-0.41,0.917-0.917v-1.833c0-0.506-0.41-0.917-0.917-0.917H32.083z"/>
		<path style="fill:#508FCC;" d="M8.25,31.167c-0.506,0-0.917,0.41-0.917,0.917v1.833c0,0.506,0.41,0.917,0.917,0.917h3.667
			c0.506,0,0.917-0.41,0.917-0.917v-1.833c0-0.506-0.41-0.917-0.917-0.917H8.25z"/>
		<path style="fill:#508FCC;" d="M20.167,31.167c-0.506,0-0.917,0.41-0.917,0.917v1.833c0,0.506,0.41,0.917,0.917,0.917h3.667
			c0.506,0,0.917-0.41,0.917-0.917v-1.833c0-0.506-0.41-0.917-0.917-0.917H20.167z"/>
	</g>
</g>
<g id="Layer_1">
</g>
</svg>
