<?xml version="1.0" encoding="iso-8859-1"?>
<!-- Generator: Adobe Illustrator 24.0.0, SVG Export Plug-In . SVG Version: 6.00 Build 0)  -->
<svg version="1.1" xmlns="http://www.w3.org/2000/svg" xmlns:xlink="http://www.w3.org/1999/xlink" x="0px" y="0px"
	 viewBox="0 0 48 30" style="enable-background:new 0 0 48 30;" xml:space="preserve">
<g id="Layer_104">
	<g>
		<path style="fill-rule:evenodd;clip-rule:evenodd;fill:#508FCC;" d="M43.42,14H43v-3c0-2.76-2.24-5-5-5h-5V3.01
			C33,1.35,31.65,0,29.99,0H3.01C1.35,0,0,1.35,0,3.01V26h5c0-3.31,2.69-6,6-6s6,2.69,6,6h7.53H29c0-2.61,1.67-4.84,4-5.65
			c0.63-0.23,1.3-0.35,2-0.35c3.31,0,6,2.69,6,6h5.47c0.85,0,1.53-0.68,1.53-1.53v-5.89C48,16.05,45.95,14,43.42,14z M37.11,9
			c1.6,0,2.89,1.29,2.89,2.89V14h-7V9H37.11z"/>
		<circle style="fill-rule:evenodd;clip-rule:evenodd;fill:#508FCC;" cx="11" cy="26" r="4"/>
		<path style="fill-rule:evenodd;clip-rule:evenodd;fill:#508FCC;" d="M35,22c-0.73,0-1.41,0.2-2,0.54c-1.2,0.69-2,1.98-2,3.46
			c0,2.21,1.79,4,4,4s4-1.79,4-4S37.21,22,35,22z"/>
	</g>
</g>
<g id="Layer_1">
</g>
</svg>
