<?xml version="1.0" encoding="iso-8859-1"?>
<!-- Generator: Adobe Illustrator 24.0.0, SVG Export Plug-In . SVG Version: 6.00 Build 0)  -->
<svg version="1.1" xmlns="http://www.w3.org/2000/svg" xmlns:xlink="http://www.w3.org/1999/xlink" x="0px" y="0px"
	 viewBox="0 0 48 39" style="enable-background:new 0 0 48 39;" xml:space="preserve">
<g id="Layer_79">
	<path style="fill:#508FCC;" d="M45.5,19h-2.52C41.7,8.3,32.61,0,21.57,0C9.68,0,0.04,9.62,0,21.5V27c0,2.21,1.79,4,4,4h17.01l8,8
		h7.49c0.83,0,1.5-0.67,1.5-1.5c0-0.83-0.67-1.5-1.5-1.5H32V24h13.5c1.38,0,2.5-1.12,2.5-2.5S46.88,19,45.5,19z M19.98,16.5
		c0,1.93-1.57,3.5-3.5,3.5s-3.5-1.57-3.5-3.5V9c0-0.55,0.45-1,1-1s1,0.45,1,1v7.5c0,0.83,0.67,1.5,1.5,1.5s1.5-0.67,1.5-1.5V9
		c0-0.55,0.45-1,1-1s1,0.45,1,1V16.5z M23.98,19c0,0.55-0.45,1-1,1s-1-0.45-1-1V9c0-0.46,0.32-0.87,0.77-0.97
		c0.45-0.11,0.92,0.11,1.12,0.52l3.11,6.21V9c0-0.55,0.45-1,1-1s1,0.45,1,1v10c0,0.46-0.32,0.87-0.77,0.97
		C28.13,19.99,28.06,20,27.98,20c-0.37,0-0.72-0.21-0.89-0.55l-3.11-6.21V19z M29,33.01l-5-5L28,24h1V33.01z"/>
</g>
<g id="Layer_1">
</g>
</svg>
