<?xml version="1.0" encoding="iso-8859-1"?>
<!-- Generator: Adobe Illustrator 24.0.0, SVG Export Plug-In . SVG Version: 6.00 Build 0)  -->
<svg version="1.1" xmlns="http://www.w3.org/2000/svg" xmlns:xlink="http://www.w3.org/1999/xlink" x="0px" y="0px"
	 viewBox="0 0 44.917 26.599" style="enable-background:new 0 0 44.917 26.599;" xml:space="preserve">
<g id="Layer_47">
	<g>
		<path style="fill:#508FCC;" d="M44.337,8.808l-21.529-8.74c-0.224-0.091-0.475-0.091-0.699,0L0.58,8.808
			c-0.773,0.314-0.773,1.409,0,1.723l21.529,8.74c0.224,0.091,0.475,0.091,0.699,0l21.529-8.74
			C45.11,10.217,45.11,9.122,44.337,8.808z"/>
		<path style="fill:#508FCC;" d="M7.379,14.887c-0.441-0.179-0.922,0.145-0.922,0.621v9.139c0,1.083,7.158,1.951,16.002,1.951
			s16.001-0.867,16.001-1.951v-9.139c0-0.476-0.481-0.8-0.922-0.621L22.71,20.904c-0.162,0.066-0.342,0.066-0.504,0L7.379,14.887z"
			/>
		<path style="fill:#508FCC;" d="M44.686,22.512c0-0.867-0.477-1.579-1.12-1.827v-8.233l-0.96,0.386v7.847
			c-0.647,0.248-1.12,0.959-1.12,1.827c0,0.735,0.335,1.341,0.831,1.676l-0.514,2.411h2.557l-0.514-2.411
			C44.342,23.852,44.686,23.246,44.686,22.512z"/>
	</g>
</g>
<g id="Layer_1">
</g>
</svg>
