<?xml version="1.0" encoding="iso-8859-1"?>
<!-- Generator: Adobe Illustrator 24.0.0, SVG Export Plug-In . SVG Version: 6.00 Build 0)  -->
<svg version="1.1" xmlns="http://www.w3.org/2000/svg" xmlns:xlink="http://www.w3.org/1999/xlink" x="0px" y="0px"
	 viewBox="0 0 48 43" style="enable-background:new 0 0 48 43;" xml:space="preserve">
<g id="Layer_91">
	<g>
		<path style="fill:#508FCC;" d="M28.5,27c1.1,0,2-0.9,2-2V15c0-1.1-0.9-2-2-2h-10c-1.1,0-2,0.9-2,2v10c0,1.1,0.9,2,2,2H28.5z"/>
		<path style="fill:#508FCC;" d="M20.5,29h-10c-1.1,0-2,0.9-2,2v10c0,1.1,0.9,2,2,2h10c1.1,0,2-0.9,2-2V31
			C22.5,29.9,21.6,29,20.5,29z"/>
		<path style="fill:#508FCC;" d="M37.5,29h-10c-1.1,0-2,0.9-2,2v10c0,1.1,0.9,2,2,2h10c1.1,0,2-0.9,2-2V31
			C39.5,29.9,38.6,29,37.5,29z"/>
		<path style="fill:#508FCC;" d="M46.488,12.383L25.49,0.395c-0.922-0.527-2.055-0.526-2.977,0L1.512,12.383
			c-1.438,0.821-1.938,2.652-1.117,4.089c0.822,1.437,2.654,1.936,4.093,1.116L24.001,6.449l19.51,11.139
			c0.469,0.268,0.981,0.396,1.485,0.396c1.042,0,2.054-0.542,2.607-1.511C48.426,15.035,47.927,13.204,46.488,12.383z"/>
	</g>
</g>
<g id="Layer_1">
</g>
</svg>
