<svg xmlns="http://www.w3.org/2000/svg" viewBox="0 0 48 48"><defs><style>.cls-1{fill:#508fcc;}</style></defs><title>Asset 21</title><g id="Layer_2" data-name="Layer 2"><g id="Layer_25" data-name="Layer 25"><path class="cls-1" d="M18,22a8,8,0,0,0,8-8c0-4-6.55-12.38-7.8-13.93a.25.25,0,0,0-.4,0C16.55,1.65,10,10.05,10,14A8,8,0,0,0,18,22Z"/><path class="cls-1" d="M39,29H25.5A3.52,3.52,0,0,0,22,32.5,3.5,3.5,0,0,0,25.5,36H31a2,2,0,0,1,2,2,2,2,0,0,1-2,2H22a2.49,2.49,0,0,1-1.6-.6L6.81,26.17a4,4,0,0,0-5.94.3A4.12,4.12,0,0,0,1.26,32L16.49,46.83A4,4,0,0,0,19.32,48H39a9,9,0,0,0,9-9V38A9,9,0,0,0,39,29Z"/></g></g></svg>