<?xml version="1.0" encoding="iso-8859-1"?>
<!-- Generator: Adobe Illustrator 24.0.0, SVG Export Plug-In . SVG Version: 6.00 Build 0)  -->
<svg version="1.1" xmlns="http://www.w3.org/2000/svg" xmlns:xlink="http://www.w3.org/1999/xlink" x="0px" y="0px"
	 viewBox="0 0 34 48" style="enable-background:new 0 0 34 48;" xml:space="preserve">
<g id="Layer_60">
	<g>
		<path style="fill:#508FCC;" d="M31,10H3c-0.55,0-1,0.45-1,1v36c0,0.55,0.45,1,1,1h28c0.55,0,1-0.45,1-1V11
			C32,10.45,31.55,10,31,10z M10,42c0,0.55-0.45,1-1,1s-1-0.45-1-1V16c0-0.55,0.45-1,1-1s1,0.45,1,1V42z M18,42c0,0.55-0.45,1-1,1
			s-1-0.45-1-1V16c0-0.55,0.45-1,1-1s1,0.45,1,1V42z M26,42c0,0.55-0.45,1-1,1s-1-0.45-1-1V16c0-0.55,0.45-1,1-1s1,0.45,1,1V42z"/>
		<path style="fill:#508FCC;" d="M32,4H22V3c0-1.657-1.343-3-3-3h-4c-1.657,0-3,1.343-3,3v1H2C0.896,4,0,4.895,0,6
			c0,1.104,0.896,2,2,2h30c1.104,0,2-0.896,2-2C34,4.895,33.104,4,32,4z"/>
	</g>
</g>
<g id="Layer_1">
</g>
</svg>
