<?xml version="1.0" encoding="iso-8859-1"?>
<!-- Generator: Adobe Illustrator 24.0.0, SVG Export Plug-In . SVG Version: 6.00 Build 0)  -->
<svg version="1.1" xmlns="http://www.w3.org/2000/svg" xmlns:xlink="http://www.w3.org/1999/xlink" x="0px" y="0px"
	 viewBox="0 0 12.645 17.739" style="enable-background:new 0 0 12.645 17.739;" xml:space="preserve">
<g id="Layer_62">
	<g>
		<g>
			<path style="fill:#508FCC;" d="M6.482,0.078c-0.082-0.103-0.238-0.103-0.32,0C5.181,1.334,0,8.101,0,11.312
				c0,3.548,2.83,6.427,6.322,6.427s6.322-2.879,6.322-6.427C12.645,8.101,7.464,1.334,6.482,0.078z M7.996,15.152
				c-0.309,0-0.558-0.248-0.558-0.554c0-0.307,0.249-0.554,0.558-0.554c0.922,0,1.674-0.913,1.674-2.033
				c0-0.307,0.249-0.554,0.558-0.554s0.558,0.248,0.558,0.554C10.785,13.744,9.536,15.152,7.996,15.152z"/>
		</g>
	</g>
</g>
<g id="Layer_1">
</g>
</svg>
