<svg xmlns="http://www.w3.org/2000/svg" viewBox="0 0 48 30"><defs><style>.cls-1,.cls-2{fill:#508fcc;}.cls-1{fill-rule:evenodd;}</style></defs><title>Asset 12</title><g id="Layer_2" data-name="Layer 2"><g id="Layer_35" data-name="Layer 35"><path class="cls-1" d="M21.94,18.22a3,3,0,0,0,2.78-3.16.56.56,0,0,0-1.11,0,1.88,1.88,0,0,1-1.67,2,.56.56,0,1,0,0,1.12Z"/><path class="cls-1" d="M43.42,14H43V11a5,5,0,0,0-5-5H33V3a3,3,0,0,0-3-3H3A3,3,0,0,0,0,3V26H5a6,6,0,0,1,12,0H29a6,6,0,0,1,4-5.65A5.8,5.8,0,0,1,35,20a6,6,0,0,1,6,6h5.47A1.52,1.52,0,0,0,48,24.47V18.58A4.58,4.58,0,0,0,43.42,14ZM20.27,20.82A6.39,6.39,0,0,1,14,14.36c0-3.22,5.17-10,6.15-11.28a.2.2,0,0,1,.32,0c1,1.26,6.15,8.06,6.15,11.28A6.39,6.39,0,0,1,20.27,20.82ZM40,14H33V9h4.11A2.89,2.89,0,0,1,40,11.89Z"/><circle class="cls-2" cx="11" cy="26" r="4"/><path class="cls-1" d="M35,22a4,4,0,1,0,4,4A4,4,0,0,0,35,22Z"/></g></g></svg>