<svg xmlns="http://www.w3.org/2000/svg" viewBox="0 0 48 48.41"><defs><style>.cls-1{fill:#508fcc;}</style></defs><title>Asset 22</title><g id="Layer_2" data-name="Layer 2"><g id="Layer_24" data-name="Layer 24"><path class="cls-1" d="M45,5.41a3,3,0,0,0-3,3v16l-4.69,5a1.21,1.21,0,0,1-1.72,0,1.26,1.26,0,0,1,0-1.75L39.39,24a2.16,2.16,0,0,0,0-3,2.06,2.06,0,0,0-3,0l-7.61,7.53A6.4,6.4,0,0,0,27,33.41v15h9v-9L47.13,27.93A3,3,0,0,0,48,25.81V8.41A3,3,0,0,0,45,5.41Z"/><path class="cls-1" d="M11.56,21a2.06,2.06,0,0,0-3,0,2.16,2.16,0,0,0,0,3l3.8,3.65a1.26,1.26,0,0,1,0,1.75,1.21,1.21,0,0,1-1.72,0L6,24.41v-16a3,3,0,0,0-3-3,3,3,0,0,0-3,3v17.4a3,3,0,0,0,.87,2.12L12,39.41v9h9v-15a6.4,6.4,0,0,0-1.83-4.85Z"/><path class="cls-1" d="M32,14c0-4-6.55-12.38-7.8-13.93a.25.25,0,0,0-.4,0C22.55,1.65,16,10.05,16,14a8,8,0,0,0,16,0Z"/></g></g></svg>