<svg xmlns="http://www.w3.org/2000/svg" viewBox="0 0 35.99 48"><defs><style>.cls-1{fill:#508fcc;}</style></defs><title>Asset 24</title><g id="Layer_2" data-name="Layer 2"><g id="Layer_23" data-name="Layer 23"><path class="cls-1" d="M20.25,39.5A4,4,0,0,0,24,35.25a.75.75,0,0,0-1.5,0A2.54,2.54,0,0,1,20.25,38a.75.75,0,0,0,0,1.5Z"/><path class="cls-1" d="M34.85,28.49,27,13H9L1.15,28.49A14,14,0,0,0,4,43.77,13.82,13.82,0,0,0,14,48h8a13.82,13.82,0,0,0,10-4.23A14,14,0,0,0,34.85,28.49ZM18,43a8.6,8.6,0,0,1-8.5-8.7c0-4.34,7-13.5,8.28-15.2a.27.27,0,0,1,.43,0C19.53,20.8,26.5,30,26.5,34.3A8.61,8.61,0,0,1,18,43Z"/><g id="Layer_22" data-name="Layer 22"><path class="cls-1" d="M18,11h9l4.47-9.82C31.71.57,30.65,0,29.23,0H22.5C20,0,18,.91,18,2c0-1.09-2-2-4.48-2H6.76C5.34,0,4.28.57,4.53,1.18L9,11Z"/></g></g></g></svg>