<?xml version="1.0" encoding="iso-8859-1"?>
<!-- Generator: Adobe Illustrator 24.0.0, SVG Export Plug-In . SVG Version: 6.00 Build 0)  -->
<svg version="1.1" xmlns="http://www.w3.org/2000/svg" xmlns:xlink="http://www.w3.org/1999/xlink" x="0px" y="0px"
	 viewBox="0 0 44 44" style="enable-background:new 0 0 44 44;" xml:space="preserve">
<g id="Layer_64">
	<g>
		<path style="fill:#508FCC;" d="M6.068,28.637c0.77,0.422,1.274,0.697,2.484,0.697c1.21,0,1.714-0.275,2.484-0.697
			c0.926-0.504,2.09-1.137,4.235-1.137c0.853,0,1.549,0.101,2.145,0.248V14.667H1.833C0.825,14.667,0,15.492,0,16.5v11.183
			c0.513-0.11,1.109-0.183,1.833-0.183C3.978,27.5,5.142,28.132,6.068,28.637z"/>
		<path style="fill:#508FCC;" d="M42.167,14.667H26.583v13.081c0.587-0.147,1.283-0.248,2.136-0.248
			c2.145,0,3.309,0.632,4.235,1.137c0.77,0.422,1.274,0.697,2.484,0.697c1.219,0,1.723-0.275,2.493-0.697
			c0.926-0.504,2.09-1.137,4.235-1.137c0.724,0,1.32,0.073,1.833,0.183V16.5C44,15.492,43.175,14.667,42.167,14.667z"/>
		<path style="fill:#508FCC;" d="M42.167,38.5c-2.148,0-3.308,0.632-4.24,1.14c-0.765,0.417-1.271,0.693-2.486,0.693
			c-1.214,0-1.72-0.276-2.485-0.693c-0.932-0.508-2.091-1.14-4.24-1.14c-2.148,0-3.307,0.632-4.238,1.14
			c-0.764,0.417-1.269,0.693-2.482,0.693c-1.213,0-1.719-0.276-2.483-0.693c-0.932-0.508-2.091-1.14-4.24-1.14
			c-2.148,0-3.307,0.632-4.239,1.14c-0.764,0.417-1.269,0.693-2.482,0.693c-1.211,0-1.716-0.276-2.481-0.693
			c-0.931-0.508-2.09-1.14-4.238-1.14C0.821,38.5,0,39.321,0,40.333s0.821,1.833,1.833,1.833c1.212,0,1.717,0.276,2.481,0.693
			C5.246,43.367,6.405,44,8.552,44c2.148,0,3.307-0.632,4.239-1.14c0.764-0.417,1.269-0.693,2.482-0.693s1.719,0.276,2.483,0.693
			c0.932,0.508,2.091,1.14,4.24,1.14c2.148,0,3.307-0.633,4.239-1.14c0.764-0.417,1.269-0.693,2.481-0.693
			c1.215,0,1.721,0.276,2.486,0.693c0.932,0.508,2.091,1.14,4.24,1.14c2.149,0,3.309-0.632,4.24-1.14
			c0.765-0.417,1.271-0.693,2.485-0.693c1.012,0,1.833-0.821,1.833-1.833S43.179,38.5,42.167,38.5z"/>
		<path style="fill:#508FCC;" d="M42.167,31.167c-2.148,0-3.308,0.632-4.24,1.14C37.162,32.724,36.656,33,35.441,33
			c-1.214,0-1.72-0.276-2.485-0.693c-0.932-0.508-2.091-1.14-4.24-1.14c-2.148,0-3.307,0.632-4.238,1.14
			C23.713,32.724,23.208,33,21.996,33c-1.213,0-1.719-0.276-2.483-0.693c-0.932-0.508-2.091-1.14-4.24-1.14
			c-2.148,0-3.307,0.632-4.239,1.14C10.27,32.724,9.765,33,8.552,33c-1.211,0-1.716-0.276-2.481-0.693
			c-0.931-0.508-2.09-1.14-4.238-1.14C0.821,31.167,0,31.988,0,33s0.821,1.833,1.833,1.833c1.212,0,1.717,0.276,2.481,0.693
			c0.931,0.508,2.09,1.14,4.237,1.14c2.148,0,3.307-0.632,4.239-1.14c0.764-0.417,1.269-0.693,2.482-0.693s1.719,0.276,2.483,0.693
			c0.932,0.508,2.091,1.14,4.24,1.14c2.148,0,3.307-0.633,4.239-1.14c0.764-0.417,1.269-0.693,2.481-0.693
			c1.215,0,1.721,0.276,2.486,0.693c0.932,0.508,2.091,1.14,4.24,1.14c2.149,0,3.309-0.632,4.24-1.14
			c0.765-0.417,1.271-0.693,2.485-0.693C43.179,34.833,44,34.012,44,33S43.179,31.167,42.167,31.167z"/>
		<path style="fill:#508FCC;" d="M16.885,9.542l0.532-0.541l1.375-1.384l1.375-1.393v8.442V24.75c0,1.008,0.825,1.833,1.833,1.833
			s1.833-0.825,1.833-1.833V14.667V6.297l1.375,1.357l1.375,1.366l0.541,0.532c0.357,0.358,0.825,0.532,1.292,0.532
			c0.477,0,0.944-0.183,1.302-0.541c0.715-0.724,0.706-1.879-0.009-2.594L26.583,3.85L25.19,2.475l-1.962-1.943
			c-0.193-0.183-0.413-0.33-0.66-0.412C22.367,0.037,22.156,0,21.936,0h-0.009c-0.22,0-0.431,0.037-0.623,0.119
			c-0.257,0.092-0.477,0.229-0.669,0.422l-1.815,1.833l-1.403,1.421l-3.135,3.162c-0.715,0.724-0.706,1.879,0.009,2.594
			C15.015,10.267,16.17,10.257,16.885,9.542z"/>
	</g>
</g>
<g id="Layer_1">
</g>
</svg>
