<?xml version="1.0" encoding="iso-8859-1"?>
<!-- Generator: Adobe Illustrator 24.0.0, SVG Export Plug-In . SVG Version: 6.00 Build 0)  -->
<svg version="1.1" xmlns="http://www.w3.org/2000/svg" xmlns:xlink="http://www.w3.org/1999/xlink" x="0px" y="0px"
	 viewBox="0 0 38 48" style="enable-background:new 0 0 38 48;" xml:space="preserve">
<g id="Layer_69">
	<g>
		<path style="fill:#508FCC;" d="M21.235,25.091h-4.471C7.506,25.091,0,32.417,0,41.455v5.582C0,47.569,0.431,48,0.963,48h36.048
			C37.557,48,38,47.557,38,47.011v-5.556C38,32.417,30.494,25.091,21.235,25.091z M20.004,37.304v4.093h0.998
			c0.555,0,1.004,0.449,1.004,1.002c0,0.554-0.449,1.003-1.004,1.003h-0.998v2.597C20.004,46.551,19.555,47,19,47
			c-0.554,0-1.004-0.449-1.004-1.002v-2.597h-0.999c-0.554,0-1.004-0.449-1.004-1.003c0-0.553,0.45-1.002,1.004-1.002h0.999v-4.093
			c-2.674-0.524-4.623-3.095-4.128-6.007c0.349-2.055,1.97-3.751,4.01-4.179c3.361-0.705,6.332,1.85,6.332,5.084
			C24.21,34.727,22.398,36.835,20.004,37.304z"/>
		<path style="fill:#508FCC;" d="M19,29.005c-1.765,0-3.201,1.434-3.201,3.197c0,1.762,1.436,3.196,3.201,3.196
			c1.765,0,3.201-1.434,3.202-3.196C22.201,30.439,20.765,29.005,19,29.005z"/>
		<ellipse style="fill:#508FCC;" cx="19" cy="10.909" rx="11.177" ry="10.909"/>
	</g>
</g>
<g id="Layer_1">
</g>
</svg>
