<?xml version="1.0" encoding="iso-8859-1"?>
<!-- Generator: Adobe Illustrator 24.0.0, SVG Export Plug-In . SVG Version: 6.00 Build 0)  -->
<svg version="1.1" xmlns="http://www.w3.org/2000/svg" xmlns:xlink="http://www.w3.org/1999/xlink" x="0px" y="0px"
	 viewBox="0 0 25.99 48" style="enable-background:new 0 0 25.99 48;" xml:space="preserve">
<g id="Layer_73">
	<g>
		<path style="fill:#508FCC;" d="M12.995,10C5.465,10,0,15.047,0,22c0,1.104,0.896,2,2,2s2-0.896,2-2c0-3.359,2.001-5.763,5-7
			L5.005,33.984C4.903,34.516,5.373,35,5.991,35h2v11c0,1.105,0.895,2,2,2s2-0.895,2-2V35h2v11c0,1.105,0.895,2,2,2s2-0.895,2-2V35
			h2c0.618,0,1.088-0.484,0.986-1.016L17,15c2.942,1.253,4.99,3.678,4.99,7c0,1.104,0.896,2,2,2s2-0.896,2-2
			C25.99,15.047,20.525,10,12.995,10z"/>
		<circle style="fill:#508FCC;" cx="12.991" cy="4" r="4"/>
	</g>
</g>
<g id="Layer_1">
</g>
</svg>
