<?xml version="1.0" encoding="iso-8859-1"?>
<!-- Generator: Adobe Illustrator 24.0.0, SVG Export Plug-In . SVG Version: 6.00 Build 0)  -->
<svg version="1.1" xmlns="http://www.w3.org/2000/svg" xmlns:xlink="http://www.w3.org/1999/xlink" x="0px" y="0px"
	 viewBox="0 0 24.916 48" style="enable-background:new 0 0 24.916 48;" xml:space="preserve">
<g id="Layer_72">
	<path style="fill:#508FCC;" d="M12.458,0C5.588,0,0,5.601,0,12.484c0,6.06,4.334,11.12,10.057,12.245v9.823H7.669
		c-1.326,0-2.401,1.077-2.401,2.405c0,1.33,1.076,2.406,2.401,2.406h2.388v6.232c0,1.328,1.076,2.405,2.401,2.405
		c1.327,0,2.401-1.077,2.401-2.405v-6.232h2.388c1.327,0,2.401-1.077,2.401-2.406c0-1.328-1.075-2.405-2.401-2.405h-2.388v-9.823
		c5.724-1.125,10.057-6.185,10.057-12.245C24.916,5.601,19.328,0,12.458,0z M12.458,20.155c-4.221,0-7.656-3.442-7.656-7.671
		c0-4.231,3.434-7.672,7.656-7.672c4.222,0,7.656,3.441,7.656,7.672C20.113,16.713,16.68,20.155,12.458,20.155z"/>
</g>
<g id="Layer_1">
</g>
</svg>
