<?xml version="1.0" encoding="iso-8859-1"?>
<!-- Generator: Adobe Illustrator 24.0.0, SVG Export Plug-In . SVG Version: 6.00 Build 0)  -->
<svg version="1.1" xmlns="http://www.w3.org/2000/svg" xmlns:xlink="http://www.w3.org/1999/xlink" x="0px" y="0px"
	 viewBox="0 0 48 42" style="enable-background:new 0 0 48 42;" xml:space="preserve">
<g id="Layer_84">
	<g>
		<path style="fill:#508FCC;" d="M23.941,20.964c1.668,0,2.991-1.596,2.991-3.592c0-1.995-1.323-3.592-2.991-3.592
			c-0.805,0-1.61,0.399-2.128,1.083c-0.518,0.684-0.863,1.539-0.863,2.508c0,0.912,0.288,1.824,0.863,2.508
			C22.331,20.564,23.136,20.964,23.941,20.964z"/>
		<path style="fill:#508FCC;" d="M41.484,38.066h-6.729h-0.863l4.659-4.219c0.92-0.912,1.208-2.394,0-3.649l-3.278-3.25l-5.522-5.53
			c-1.208-1.197-2.761-0.912-3.681,0c-0.345,0.342-0.633,0.798-0.748,1.311l-2.646,4.105l-3.106-3.82
			c-0.575-0.741-1.668-0.855-2.473-0.285c-0.748,0.57-0.863,1.653-0.288,2.451l4.601,5.701c0.345,0.399,0.805,0.627,1.38,0.627
			c0.058,0,0.058,0,0.115,0c0.518,0,1.035-0.285,1.323-0.741l3.451-4.162l3.854,3.877l2.186,2.166l-6.327,5.929
			c-0.633,0.57-0.805,1.425-0.518,2.166C27.162,41.487,27.91,42,28.773,42h6.039h6.729c1.09,0,1.982-0.859,2.014-1.938
			C43.497,39.093,42.807,38.066,41.484,38.066z"/>
		<path style="fill:#508FCC;" d="M46.488,12.274L25.49,0.391c-0.922-0.522-2.055-0.522-2.977,0L1.512,12.274
			c-1.438,0.814-1.938,2.629-1.117,4.053c0.822,1.424,2.654,1.919,4.093,1.106L24.001,6.392l19.51,11.04
			c0.469,0.266,0.981,0.392,1.485,0.392c1.042,0,2.054-0.538,2.607-1.497C48.426,14.903,47.927,13.088,46.488,12.274z"/>
	</g>
</g>
<g id="Layer_1">
</g>
</svg>
